#N canvas 142 129 624 410 10;
#X obj 23 9 cnv 15 220 160 empty empty empty 20 12 0 14 -233017 -66577
0;
#N canvas 731 270 399 337 instructions 0;
#X text 15 90 Play Modes \; 1 play each pixel at his own tempo relative
to Depth \; 2 play all at regular tempo \; 3 play all at once \, relative
to central pixel depth \; 4 pingpong mode;
#X text 15 13 This is a prototype to sonificate distance and color
images from kinect \, for Synesthesia Unit of Sussex University;
#X text 15 50 Color Classes: 0 - Off 1 - Black 2 - White 3 - Gray 4
- Red 5 - Yellow 6 - Green 7 - Blue;
#X text 15 167 Set Max_Threshold to set the maximum depth captured
\; Set Min for the min depth (default 400mm works fine) \; Set general
tempo for mode 2 and 4 \; Set offset(%) to change onset time offset
for color class \; Set Reverber to liking (actually independent from
depth) \;;
#X text 15 242 In [pd Stuff] "visualize" toggles On Off display \;
"depthDebug" for the depth image \; "colorDebug" for the color image
\; both can be seen in 13*7 grid or 800*600 \;;
#X text 17 303 comment;
#X restore 36 100 pd instructions;
#X obj 252 9 cnv 15 300 160 empty empty empty 20 12 0 14 -4034 -66577
0;
#X obj 263 22 hsl 200 30 100 5000 0 0 general_tempo general_tempo-r
general_tempo(ms) 50 16 0 10 -262144 -1 -99865 1624 1;
#X obj 29 219 hsl 128 25 0.1 10 0 0 maxThr empty empty -2 -8 0 10 -262144
-1 -1 12700 1;
#X obj 26 194 nbx 5 20 0.1 1e+37 0 0 empty MaxThr-r Max_Threshold 0
-10 0 16 -262144 -1 -1 10 256;
#X obj 30 317 hsl 128 25 0 10 0 0 minThr empty empty -2 -8 0 10 -262144
-1 -1 0 1;
#X obj 26 292 nbx 5 20 0 1e+37 0 0 empty MinThr-r Min_Threshold 0 -10
0 16 -262144 -1 -1 0 256;
#X obj 260 103 vradio 15 1 1 4 play_mode empty empty 0 -8 0 10 -262144
-1 -1 1;
#X text 278 104 1 - Distance controls tempo of each sample;
#X text 277 149 4 - Pingpong;
#X text 278 135 3 - Tempo relative to central pixel depth.;
#X text 278 120 2 - Play all at regular tempo.;
#X obj 285 215 vsl 50 150 0 5 0 0 volume volume-set Vol 0 -9 0 10 -262144
-1 -1 0 1;
#N canvas 192 429 425 309 stuff 0;
#N canvas 50 167 492 495 showDmouse 0;
#X obj 17 44 gemhead;
#X obj 20 310 translateXYZ 0 0 0.0001;
#X obj 268 273 pix_data;
#X floatatom 78 82 5 0 1 0 X - -, f 5;
#X floatatom 127 84 5 0 1 0 Y - -, f 5;
#X obj 78 106 t f f;
#X obj 128 107 t f f;
#X floatatom 349 333 5 0 0 0 - - -, f 5;
#X obj 239 336 unpack f f f;
#X floatatom 219 356 5 0 0 0 - - -, f 5;
#X floatatom 257 357 8 0 0 0 - - -, f 8;
#X floatatom 315 359 5 0 0 0 - - -, f 5;
#X obj 287 84 metro 200;
#X obj 288 64 tgl 15 0 empty empty empty 17 7 0 10 -262144 -1 -1 0
1;
#X obj 117 42 gemmouse;
#X obj 67 229 expr $f1*10.66/640 - 5.33;
#X obj 41 252 expr 4 - $f1*8/480;
#X obj 289 380 * 256;
#X obj 219 380 * 65536;
#X obj 219 410 +;
#X text 328 379 second and first 8 bits;
#X obj 222 435 / 1000;
#X obj 208 73 sel 1;
#X obj 168 74 sel 1;
#X msg 207 103 0;
#X obj 312 189 expr $f1/640;
#X obj 319 217 expr 1 - $f1/480;
#X obj 302 136 r img;
#X text 246 407 depthmode 1;
#X obj 221 456 s Dmouse;
#X msg 172 98 1;
#X obj 183 124 s showDmouse-r;
#X obj 211 7 r showDmouse-r;
#X msg 41 423 text \$1;
#X obj 78 456 r sz;
#X obj 20 454 text2d;
#X obj 43 400 r Dmouse;
#X obj 18 152 separator;
#X obj 21 368 color 0 1 0;
#X connect 0 0 37 0;
#X connect 1 0 38 0;
#X connect 2 1 8 0;
#X connect 2 2 7 0;
#X connect 3 0 5 0;
#X connect 4 0 6 0;
#X connect 5 0 15 0;
#X connect 5 1 25 0;
#X connect 6 0 16 0;
#X connect 6 1 26 0;
#X connect 8 0 9 0;
#X connect 8 1 10 0;
#X connect 8 2 11 0;
#X connect 9 0 18 0;
#X connect 10 0 17 0;
#X connect 12 0 2 0;
#X connect 13 0 12 0;
#X connect 14 0 3 0;
#X connect 14 1 4 0;
#X connect 14 2 23 0;
#X connect 14 4 22 0;
#X connect 15 0 1 1;
#X connect 16 0 1 2;
#X connect 17 0 19 1;
#X connect 18 0 19 0;
#X connect 19 0 21 0;
#X connect 21 0 29 0;
#X connect 22 0 24 0;
#X connect 23 0 30 0;
#X connect 24 0 31 0;
#X connect 25 0 2 2;
#X connect 26 0 2 3;
#X connect 27 0 2 1;
#X connect 30 0 31 0;
#X connect 32 0 0 0;
#X connect 32 0 13 0;
#X connect 33 0 35 0;
#X connect 34 0 35 1;
#X connect 36 0 33 0;
#X connect 37 0 1 0;
#X connect 38 0 35 0;
#X restore 109 46 pd showDmouse;
#N canvas 1 496 1351 271 get7x13D 0;
#X obj 712 27 getD_Color 7 7 0;
#X obj 303 81 getD_Color 29 3 2;
#X obj 403 27 getD_Color 4 4 0;
#X obj 924 27 getD_Color 9 9 0;
#X obj 609 27 getD_Color 6 6 0;
#X obj 302 27 getD_Color 3 3 0;
#X obj 203 27 getD_Color 2 2 0;
#X obj 403 54 getD_Color 17 4 1;
#X obj 404 137 getD_Color 56 4 4;
#X obj 505 81 getD_Color 31 5 2;
#X obj 818 137 getD_Color 60 8 4;
#X obj 109 108 getD_Color 40 1 3;
#X obj 817 27 getD_Color 8 8 0;
#X obj 13 27 getD_Color 0 0 0;
#X obj 109 27 getD_Color 1 1 0;
#X obj 1025 27 getD_Color 10 10 0;
#X obj 1252 27 getD_Color 12 12 0;
#X obj 1252 54 getD_Color 25 12 1;
#X obj 1138 54 getD_Color 24 11 1;
#X obj 924 54 getD_Color 22 9 1;
#X obj 13 54 getD_Color 13 0 1;
#X obj 13 81 getD_Color 26 0 2;
#X obj 13 108 getD_Color 39 0 3;
#X obj 14 137 getD_Color 52 0 4;
#X obj 14 164 getD_Color 65 0 5;
#X obj 14 191 getD_Color 78 0 6;
#X obj 109 81 getD_Color 27 1 2;
#X obj 110 137 getD_Color 53 1 4;
#X obj 110 191 getD_Color 79 1 6;
#X obj 203 81 getD_Color 28 2 2;
#X obj 204 137 getD_Color 54 2 4;
#X obj 204 191 getD_Color 80 2 6;
#X obj 303 137 getD_Color 55 3 4;
#X obj 303 191 getD_Color 81 3 6;
#X obj 403 81 getD_Color 30 4 2;
#X obj 404 191 getD_Color 82 4 6;
#X obj 505 27 getD_Color 5 5 0;
#X obj 506 137 getD_Color 57 5 4;
#X obj 506 191 getD_Color 83 5 6;
#X obj 609 81 getD_Color 32 6 2;
#X obj 611 136 getD_Color 58 6 4;
#X obj 610 191 getD_Color 84 6 6;
#X obj 712 81 getD_Color 33 7 2;
#X obj 713 137 getD_Color 59 7 4;
#X obj 713 191 getD_Color 85 7 6;
#X obj 817 81 getD_Color 34 8 2;
#X obj 818 191 getD_Color 86 8 6;
#X obj 924 81 getD_Color 35 9 2;
#X obj 924 108 getD_Color 48 9 3;
#X obj 925 137 getD_Color 61 9 4;
#X obj 925 164 getD_Color 74 9 5;
#X obj 925 191 getD_Color 87 9 6;
#X obj 1025 54 getD_Color 23 10 1;
#X obj 1025 81 getD_Color 36 10 2;
#X obj 1025 108 getD_Color 49 10 3;
#X obj 1026 137 getD_Color 62 10 4;
#X obj 1026 164 getD_Color 75 10 5;
#X obj 1026 191 getD_Color 88 10 6;
#X obj 1138 27 getD_Color 11 11 0;
#X obj 1138 80 getD_Color 37 11 2;
#X obj 1138 108 getD_Color 50 11 3;
#X obj 1139 137 getD_Color 63 11 4;
#X obj 1139 164 getD_Color 76 11 5;
#X obj 1139 191 getD_Color 89 11 6;
#X obj 1252 81 getD_Color 38 12 2;
#X obj 1252 108 getD_Color 51 12 3;
#X obj 1253 137 getD_Color 64 12 4;
#X obj 1253 164 getD_Color 77 12 5;
#X obj 1253 191 getD_Color 90 12 6;
#X obj 109 54 getD_Color 14 1 1;
#X obj 110 164 getD_Color 66 1 5;
#X obj 203 54 getD_Color 15 2 1;
#X obj 203 108 getD_Color 41 2 3;
#X obj 204 164 getD_Color 67 2 5;
#X obj 302 54 getD_Color 16 3 1;
#X obj 302 108 getD_Color 42 3 3;
#X obj 303 164 getD_Color 68 3 5;
#X obj 403 107 getD_Color 43 4 3;
#X obj 404 164 getD_Color 69 4 5;
#X obj 505 108 getD_Color 44 5 3;
#X obj 506 164 getD_Color 70 5 5;
#X obj 609 54 getD_Color 19 6 1;
#X obj 609 108 getD_Color 45 6 3;
#X obj 610 164 getD_Color 71 6 5;
#X obj 712 54 getD_Color 20 7 1;
#X obj 712 108 getD_Color 46 7 3;
#X obj 713 164 getD_Color 72 7 5;
#X obj 817 54 getD_Color 21 8 1;
#X obj 817 108 getD_Color 47 8 3;
#X obj 818 164 getD_Color 73 8 5;
#X obj 505 54 getD_Color 18 5 1;
#X restore 25 42 pd get7x13D;
#X obj 25 67 bng 15 250 50 0 empty empty empty 17 7 0 10 -262144 -1
-1;
#X obj 25 90 s bdata;
#N canvas 1 255 449 436 Dimg4test 0;
#X obj 62 320 s Dimg;
#X obj 315 31 gemhead 51;
#X obj 318 121 colorRGB;
#X obj 318 193 translateXYZ;
#X floatatom 367 88 5 0 0 0 - - -, f 5;
#X obj 88 158 spigot;
#X obj 90 112 tgl 15 0 empty empty empty 0 -6 0 8 -262144 -1 -1 0 1
;
#X obj 57 138 t a b;
#X obj 88 178 t b b;
#X msg 124 178 0;
#X floatatom 340 153 5 0 0 0 - - -, f 5;
#X obj 318 225 rectangle 0.3 0.45;
#X obj 56 74 gemhead 52;
#X obj 127 119 metro 300;
#X obj 128 97 tgl 15 0 empty empty empty 17 7 0 10 -262144 -1 -1 0
1;
#X obj 59 38 tgl 15 0 empty empty empty 17 7 0 10 -262144 -1 -1 0 1
;
#X floatatom 378 153 5 0 0 0 - - -, f 5;
#X msg 236 361 \$1 \$1;
#X floatatom 259 259 5 0 0 0 - - -, f 5;
#X obj 239 329 pack f f;
#X obj 265 307 t b f;
#X obj 267 283 expr 3*$f1/4;
#X obj 57 284 pix_snap;
#X obj 316 61 alpha;
#X floatatom 318 347 5 0 0 0 - - -, f 5;
#X msg 201 222 640 480;
#X text 18 386 qual é o tamanho do snap? para a imagem snappada ficar
igual a imagem criada (com rectangulo do tamanho de X/13 e Y/7)?;
#X obj 281 30 tgl 15 0 empty empty empty 17 7 0 10 -262144 -1 -1 0
1;
#X obj 153 33 loadbang;
#X msg 187 58 0;
#X connect 1 0 23 0;
#X connect 2 0 3 0;
#X connect 3 0 11 0;
#X connect 4 0 2 4;
#X connect 5 0 8 0;
#X connect 6 0 5 1;
#X connect 7 0 22 0;
#X connect 7 1 5 0;
#X connect 8 0 22 0;
#X connect 8 1 9 0;
#X connect 9 0 6 0;
#X connect 10 0 3 1;
#X connect 12 0 7 0;
#X connect 13 0 6 0;
#X connect 14 0 13 0;
#X connect 15 0 12 0;
#X connect 16 0 3 2;
#X connect 17 0 22 2;
#X connect 18 0 21 0;
#X connect 18 0 19 0;
#X connect 19 0 17 0;
#X connect 20 0 19 0;
#X connect 20 1 19 1;
#X connect 20 1 24 0;
#X connect 21 0 20 0;
#X connect 22 0 0 0;
#X connect 23 0 2 0;
#X connect 25 0 22 2;
#X connect 27 0 1 0;
#X connect 28 0 29 0;
#X connect 29 0 27 0;
#X connect 29 0 15 0;
#X restore 25 17 pd Dimg4test;
#N canvas 684 193 609 466 mode4 0;
#X obj 248 199 textfile;
#X msg 319 49 write mask-listas.txt cr;
#X msg 266 50 clear;
#X obj 320 269 spigot;
#X obj 353 248 tgl 15 0 empty empty empty 17 7 0 10 -262144 -1 -1 0
1;
#X obj 403 172 bng 15 250 50 0 empty empty empty 17 7 0 10 -262144
-1 -1;
#X obj 429 171 r tik;
#X obj 378 95 loadbang;
#X obj 399 227 spigot;
#X obj 433 202 tgl 15 0 empty empty empty 17 7 0 10 -262144 -1 -1 0
1;
#X obj 483 264 == 3;
#X obj 484 237 r play_mode;
#X obj 140 267 list-drip;
#X obj 152 367 f;
#X obj 152 389 + 1;
#X obj 116 419 s;
#X obj 110 313 t f b;
#X msg 152 416 symbol ligaGet-\$1;
#X obj 235 231 t l b;
#X msg 338 132 read mask-listas.txt \, rewind \, bang;
#X msg 230 304 -1;
#N canvas 1 83 337 271 createTextfile 0;
#X obj 84 202 list-extend;
#X msg 170 202 bang;
#X obj 111 42 bng 15 250 50 0 empty empty empty 17 7 0 10 -262144 -1
-1;
#X obj 81 128 until;
#X msg 83 96 7;
#X obj 124 77 t b b;
#X obj 67 266 list;
#X obj 48 231 bng 15 250 50 0 empty empty empty 17 7 0 10 -262144 -1
-1;
#X msg 30 158 0 0 0 0 0 0 0 0 0 0 0 0 1;
#X connect 0 0 6 1;
#X connect 1 0 0 1;
#X connect 2 0 5 0;
#X connect 3 0 8 0;
#X connect 4 0 3 0;
#X connect 5 0 4 0;
#X connect 5 1 1 0;
#X connect 7 0 6 0;
#X connect 8 0 0 0;
#X restore 99 97 pd createTextfile;
#X obj 20 329 print;
#X text 195 390 liga desliga os pixels conforme as colunas do pingpong
;
#X connect 0 0 18 0;
#X connect 0 1 3 0;
#X connect 1 0 0 0;
#X connect 2 0 0 0;
#X connect 3 0 19 0;
#X connect 4 0 3 1;
#X connect 5 0 0 0;
#X connect 6 0 8 0;
#X connect 7 0 19 0;
#X connect 8 0 0 0;
#X connect 9 0 8 1;
#X connect 10 0 9 0;
#X connect 10 0 4 0;
#X connect 11 0 10 0;
#X connect 12 0 16 0;
#X connect 13 0 14 0;
#X connect 14 0 13 1;
#X connect 14 0 17 0;
#X connect 16 0 15 0;
#X connect 16 1 13 0;
#X connect 17 0 15 1;
#X connect 18 0 12 0;
#X connect 18 1 20 0;
#X connect 19 0 0 0;
#X connect 20 0 13 1;
#X restore 110 74 pd mode4;
#N canvas 557 111 590 434 init 0;
#X obj 151 15 table coorX;
#X obj 237 15 table coorY;
#X obj 324 15 table valD;
#X obj 75 15 loadbang;
#X obj 46 15 s B;
#X obj 32 322 table HUE 91;
#X obj 117 322 table SATURATION 91;
#X obj 243 322 table VALUE 91;
#X obj 33 352 table valRed 91;
#X obj 135 351 table valGreen 91;
#X obj 252 350 table valBlue 91;
#X obj 409 15 table ColorTypeAll 91;
#X obj 29 375 table drawImage 364;
#N canvas 1 54 450 300 LCHstuff 0;
#X obj 90 355 table testHvalues 1.65814e+07;
#X obj 90 331 table testCvalues 1.65814e+07;
#X obj 90 308 table testLvalues 1.65814e+07;
#X msg 94 240 \; testLvalues read textLvalues.txt \; testCvalues read
textCvalues.txt \; testHvalues read textHvalues.txt;
#X msg 238 123 255 255 255;
#X obj 93 218 r B;
#X obj 115 44 hsv2rgb;
#X text 184 39 H;
#X obj 209 154 rgb2HCL-lut;
#X obj 207 178 print HCL;
#X obj 115 66 print rgb;
#X msg 92 20 0.8 1 1;
#X msg 211 100 0.8 0 1;
#X msg 84 110 set \$1 \$2 \$3;
#X obj 79 85 t b l;
#X msg 77 160 0.8 0 1;
#X connect 4 0 8 0;
#X connect 6 0 10 0;
#X connect 6 0 14 0;
#X connect 8 0 9 0;
#X connect 11 0 6 0;
#X connect 12 0 8 0;
#X connect 14 1 13 0;
#X restore 464 377 pd LCHstuff;
#X msg 32 44 \; qual 0 \; showDmouse-r 0 \; sz 15 \; coorX resize 13
\; coorX 0 0.038 0.115 0.192 0.269 0.346 0.423 0.5 0.577 0.654 0.731
0.807 0.884 0.961 \; coorX bounds 0 0 12 1 \; coorY resize 7 \; coorY
0 0.071 0.214 0.357 0.5 0.642 0.786 0.928 \; coorY bounds 0 0 6 1 \;
valD resize 91 \; valD xticks 0 5 1 \; valD xlabel -0.1 0 5 10 15 20
25 30 35 40 45 50 55 60 65 70 75 80 85 90 \; valD ylabel -1 0.5 1 1.5
2 3 4 5 \; valD bounds 0 9 91 0 \; bdata bang \; MaxThr-r 10 \; MinThr-r
0 \; general_tempo-r 500 \; DistanceType 0 \;, f 86;
#X connect 3 0 4 0;
#X connect 3 0 14 0;
#X restore 203 48 pd init;
#N canvas 150 412 450 300 gemwin 0;
#X obj 109 219 gemwin;
#X msg 151 182 0 \, destroy;
#X msg 99 150 dimen 640 480 \, frame 10 \, create \, 1;
#X obj 115 77 r onOff;
#X obj 115 107 sel 1 0;
#X connect 1 0 0 0;
#X connect 2 0 0 0;
#X connect 3 0 4 0;
#X connect 4 0 2 0;
#X connect 4 1 1 0;
#X restore 196 74 pd gemwin;
#X obj 275 46 tgl 15 0 empty empty empty 17 7 0 10 -262144 -1 -1 0
1;
#X obj 275 91 tgl 15 0 empty empty empty 17 7 0 10 -262144 -1 -1 0
1;
#N canvas 36 317 912 450 interconn 0;
#X obj 63 263 tgl 15 0 empty empty empty 17 7 0 10 -262144 -1 -1 0
1;
#X msg 82 138 disconnect;
#X obj 62 219 netsend;
#X msg 30 110 connect localhost 2000;
#X obj 392 128 r OutList;
#X obj 55 20 inlet;
#X obj 40 315 outlet;
#X obj 55 52 sel 1 0;
#X obj 179 21 netreceive 2001;
#X obj 179 52 route /tik;
#X obj 179 77 s tik;
#X obj 782 178 r play_mode;
#X msg 773 215 send /play_mode \$1;
#X obj 233 124 r general_tempo;
#X msg 233 148 send /general_tempo \$1;
#X obj 566 109 r maxThr;
#X msg 566 141 send /maxThr \$1;
#X obj 654 177 r minThr;
#X msg 654 206 send /minThr \$1;
#X obj 157 76 bng 15 250 50 0 empty empty empty 17 7 0 10 -262144 -1
-1;
#X obj 713 45 sel 1;
#X msg 639 108 10;
#X msg 691 131 0;
#X obj 97 301 s connON;
#X obj 713 23 r connON;
#X msg 756 159 1;
#X obj 310 21 r volume;
#X msg 310 46 send /vol \$1;
#X obj 713 72 t b b b b;
#X msg 773 113 \; volume-set bang;
#X obj 413 24 r RevLev;
#X msg 413 46 send /RevLev \$1;
#X obj 413 72 s sendit;
#X obj 88 179 r sendit;
#X obj 310 72 s sendit;
#X obj 654 233 s sendit;
#X obj 566 167 s sendit;
#X obj 233 176 s sendit;
#X obj 773 242 s sendit;
#X obj 392 177 s sendit;
#X msg 392 153 send /Dval_pixN \$1 \$2;
#X obj 528 70 s sendit;
#X obj 250 232 r Offset-01;
#X obj 266 273 r general_tempo;
#X obj 266 296 / 13;
#X obj 250 395 s sendit;
#X obj 266 319 t b f;
#X msg 250 368 send /Offset \$1;
#X obj 250 346 *;
#X obj 162 381 s offsetView;
#X msg 528 46 send /ColorType_pixN \$1 \$2;
#X obj 528 22 r ColorType_pixN;
#N canvas 1 69 803 603 sendColorOffsets 0;
#X obj 29 13 r Offset-1;
#X obj 163 509 s sendit;
#X obj 213 30 r Offset-2;
#X obj 389 45 r Offset-3;
#X obj 400 178 r Offset-4;
#X obj 600 181 r Offset-5;
#X obj 580 323 r Offset-6;
#X obj 612 449 r Offset-7;
#X obj 45 40 r general_tempo;
#X obj 45 62 t b f;
#X obj 29 89 *;
#X obj 229 54 r general_tempo;
#X obj 229 76 t b f;
#X obj 213 103 *;
#X obj 405 72 r general_tempo;
#X obj 405 94 t b f;
#X obj 389 121 *;
#X obj 416 201 r general_tempo;
#X obj 416 223 t b f;
#X obj 400 250 *;
#X obj 616 206 r general_tempo;
#X obj 616 228 t b f;
#X obj 600 255 *;
#X obj 596 346 r general_tempo;
#X obj 596 368 t b f;
#X obj 580 395 *;
#X obj 628 474 r general_tempo;
#X obj 628 496 t b f;
#X obj 612 523 *;
#X msg 29 118 send /ColorOffsetList \$1 1;
#X msg 213 128 send /ColorOffsetList \$1 2;
#X msg 389 147 send /ColorOffsetList \$1 3;
#X msg 400 274 send /ColorOffsetList \$1 4;
#X msg 600 280 send /ColorOffsetList \$1 5;
#X msg 580 420 send /ColorOffsetList \$1 6;
#X msg 612 550 send /ColorOffsetList \$1 7;
#X connect 0 0 10 0;
#X connect 2 0 13 0;
#X connect 3 0 16 0;
#X connect 4 0 19 0;
#X connect 5 0 22 0;
#X connect 6 0 25 0;
#X connect 7 0 28 0;
#X connect 8 0 9 0;
#X connect 9 0 10 0;
#X connect 9 1 10 1;
#X connect 10 0 29 0;
#X connect 11 0 12 0;
#X connect 12 0 13 0;
#X connect 12 1 13 1;
#X connect 13 0 30 0;
#X connect 14 0 15 0;
#X connect 15 0 16 0;
#X connect 15 1 16 1;
#X connect 16 0 31 0;
#X connect 17 0 18 0;
#X connect 18 0 19 0;
#X connect 18 1 19 1;
#X connect 19 0 32 0;
#X connect 20 0 21 0;
#X connect 21 0 22 0;
#X connect 21 1 22 1;
#X connect 22 0 33 0;
#X connect 23 0 24 0;
#X connect 24 0 25 0;
#X connect 24 1 25 1;
#X connect 25 0 34 0;
#X connect 26 0 27 0;
#X connect 27 0 28 0;
#X connect 27 1 28 1;
#X connect 28 0 35 0;
#X connect 29 0 1 0;
#X connect 30 0 1 0;
#X connect 31 0 1 0;
#X connect 32 0 1 0;
#X connect 33 0 1 0;
#X connect 34 0 1 0;
#X connect 35 0 1 0;
#X restore 346 234 pd sendColorOffsets;
#X obj 538 244 r flip;
#X msg 537 270 send /flip \$1;
#X obj 530 300 s sendit;
#X connect 0 0 6 0;
#X connect 0 0 23 0;
#X connect 1 0 2 0;
#X connect 2 0 0 0;
#X connect 3 0 2 0;
#X connect 4 0 40 0;
#X connect 5 0 7 0;
#X connect 7 0 3 0;
#X connect 7 1 1 0;
#X connect 8 0 9 0;
#X connect 9 0 10 0;
#X connect 11 0 12 0;
#X connect 12 0 38 0;
#X connect 13 0 14 0;
#X connect 14 0 37 0;
#X connect 15 0 16 0;
#X connect 16 0 36 0;
#X connect 17 0 18 0;
#X connect 18 0 35 0;
#X connect 19 0 10 0;
#X connect 20 0 28 0;
#X connect 21 0 16 0;
#X connect 22 0 18 0;
#X connect 24 0 20 0;
#X connect 25 0 12 0;
#X connect 26 0 27 0;
#X connect 27 0 34 0;
#X connect 28 0 21 0;
#X connect 28 1 22 0;
#X connect 28 2 25 0;
#X connect 28 3 29 0;
#X connect 30 0 31 0;
#X connect 31 0 32 0;
#X connect 33 0 2 0;
#X connect 40 0 39 0;
#X connect 42 0 48 0;
#X connect 43 0 44 0;
#X connect 44 0 46 0;
#X connect 46 0 48 0;
#X connect 46 1 48 1;
#X connect 47 0 45 0;
#X connect 48 0 47 0;
#X connect 48 0 49 0;
#X connect 50 0 41 0;
#X connect 51 0 50 0;
#X connect 53 0 54 0;
#X connect 54 0 55 0;
#X restore 275 67 pd interconn;
#X obj 275 18 r onOff;
#N canvas 1 57 450 300 ToDo 0;
#X obj 11 37 vradio 50 1 0 2 colorSpace empty empty 0 -8 0 10 -262144
-1 -1 0;
#X text 69 46 HSV;
#X text 9 17 Color Space;
#X text 68 102 CIE-Lch;
#X text 142 18 debug problems for Distance Lin/Nat:;
#X restore 203 21 pd ToDo;
#X obj 7 145 cnv 15 400 150 empty empty adancedGUI 20 12 0 14 -233017
-66577 0;
#N canvas 403 156 844 360 properties 0;
#X obj 13 66 cnv 15 140 220 empty empty empty 20 12 0 14 -204800 -66577
0;
#X msg 18 250 led \$1;
#X obj 18 131 vradio 15 1 0 6 empty empty empty 0 -8 0 10 -262144 -1
-1 3;
#X floatatom 18 227 5 0 0 0 - - -, f 5;
#X msg 95 250 angle \$1;
#X obj 95 95 vsl 15 128 -30 30 0 0 empty empty empty 0 -9 0 10 -262144
-1 -1 0 1;
#X floatatom 95 231 5 0 0 0 - - -, f 5;
#X msg 59 29 0;
#X text 34 145 GREEN;
#X text 35 129 OFF;
#X text 34 161 RED;
#X text 34 176 YELLOW;
#X text 34 191 BLINK_GR;
#X text 34 205 BLINK_R_Y;
#X obj 168 48 cnv 15 320 120 empty empty empty 20 12 0 14 -4034 -66577
0;
#X obj 179 85 vradio 15 1 0 2 empty empty empty 0 -8 0 10 -262144 -1
-1 0;
#X floatatom 179 120 5 0 0 0 - - -, f 5;
#X obj 244 86 vradio 15 1 0 2 empty empty empty 0 -8 0 10 -262144 -1
-1 1;
#X floatatom 244 121 5 0 0 0 - - -, f 5;
#X msg 179 141 rgb \$1;
#X msg 244 142 depth \$1;
#X text 171 48 activate/deactivate streams;
#X text 173 62 save cpu power by just activating necessary streams!
;
#X obj 496 49 cnv 15 315 120 empty empty empty 20 12 0 14 -232576 -66577
0;
#X obj 499 88 vradio 15 1 0 2 empty empty empty 0 -8 0 10 -262144 -1
-1 0;
#X floatatom 499 123 5 0 0 0 - - -, f 5;
#X msg 499 143 depth_output \$1;
#X text 646 111 b = 0 \, a = 0;
#X text 21 4 properties for pix_freenect;
#X text 517 26 DEPTH OUTPUT;
#X text 190 27 STREAMS;
#X text 36 47 LED \, ANGLE;
#X text 645 98 r->3 msbits \, g ->8 lsbits;
#X text 518 101 Raw YUV (2 bytes) |;
#X text 518 86 Raw RGBA -> 11 bit output in r&g channel;
#X obj 168 192 cnv 15 520 120 empty empty empty 20 12 0 14 -261682
-66577 0;
#X obj 180 215 vradio 15 1 0 3 empty empty empty 0 -8 0 10 -262144
-1 -1 1;
#X floatatom 180 264 5 0 0 0 - - -, f 5;
#X obj 368 226 vradio 15 1 0 2 empty empty empty 0 -8 0 10 -262144
-1 -1 0;
#X floatatom 368 261 5 0 0 0 - - -, f 5;
#X msg 180 285 depth_mode \$1;
#X text 201 243 11bit raw;
#X text 503 52 set depth output colorspace;
#X text 171 195 set output formats;
#X text 201 227 mm aligned to rgb (16 bit);
#X text 201 213 mm unaligned (16 bit);
#X msg 368 282 video_mode \$1;
#X text 388 224 RGB;
#X text 387 240 IR;
#X obj 18 276 s \$0-prop;
#X obj 179 166 s \$0-prop;
#X obj 499 169 s \$0-prop;
#X obj 180 314 s \$0-prop;
#X obj 484 220 vradio 15 1 0 3 empty empty empty 0 -8 0 10 -262144
-1 -1 1;
#X floatatom 484 268 5 0 0 0 - - -, f 5;
#X msg 484 287 resolution \$1;
#X text 504 234 MEDIUM (default);
#X text 481 197 RGB RESOLUTION;
#X text 504 249 HIGH (restart rgb stream!);
#X text 504 219 LOW (not displaying correctly);
#X msg 142 313 1;
#X text 444 313 HIGH Resolution IR works just if depth stream is shut
down!!;
#X obj 143 287 r B;
#X obj 115 34 r kin_angle;
#X obj 56 319 s angleVal;
#X connect 1 0 49 0;
#X connect 2 0 3 0;
#X connect 3 0 1 0;
#X connect 4 0 49 0;
#X connect 5 0 6 0;
#X connect 6 0 4 0;
#X connect 6 0 64 0;
#X connect 7 0 5 0;
#X connect 15 0 16 0;
#X connect 16 0 19 0;
#X connect 17 0 18 0;
#X connect 18 0 20 0;
#X connect 19 0 50 0;
#X connect 20 0 50 0;
#X connect 24 0 25 0;
#X connect 25 0 26 0;
#X connect 26 0 51 0;
#X connect 36 0 37 0;
#X connect 37 0 40 0;
#X connect 38 0 39 0;
#X connect 39 0 46 0;
#X connect 40 0 52 0;
#X connect 46 0 52 0;
#X connect 53 0 54 0;
#X connect 54 0 55 0;
#X connect 55 0 52 0;
#X connect 60 0 36 0;
#X connect 62 0 60 0;
#X connect 63 0 5 0;
#X restore 15 203 pd properties;
#N canvas 702 165 374 528 createDisplay 0;
#X obj 54 419 pix_texture;
#X msg 72 391 quality \$1;
#X obj 72 372 tgl 15 0 empty qual empty 17 7 0 10 -262144 -1 -1 0 1
;
#X obj 54 444 rectangle 5.33 4;
#X obj 93 57 gemhead;
#X obj 54 250 pix_set 13 7;
#X obj 93 81 t a b;
#X obj 103 179 r B;
#X obj 91 33 tgl 15 0 empty empty empty 17 7 0 10 -262144 -1 -1 0 1
;
#X obj 91 6 inlet;
#X text 134 9 create a depth image \; with D values;
#N canvas 1 125 1094 642 drawImage 0;
#X obj 260 288 tabread valRed;
#X obj 572 292 tabread valD, f 14;
#X obj 362 126 + 1;
#X obj 360 158 mod 91;
#X obj 361 104 f -1;
#X obj 354 41 bng 15 250 50 0 empty empty empty 17 7 0 10 -262144 -1
-1;
#X obj 269 463 array set drawImage;
#X obj 267 345 pack f f f f;
#X obj 370 379 * 4;
#X floatatom 226 162 5 0 0 0 - - -, f 5;
#X msg 403 49 -1;
#X obj 279 245 t f f f f f;
#X msg 926 144 1 1 1;
#X text 1023 145 white;
#X text 1021 114 black;
#X text 1026 172 gray;
#X msg 926 115 0 0 0;
#X text 1018 234 yellow;
#X msg 926 202 1 0 0;
#X text 1027 203 red;
#X msg 926 231 1 1 0;
#X msg 926 260 0 1 0;
#X msg 926 289 0 0 1;
#X text 1021 258 green;
#X text 1032 287 blue;
#X obj 706 89 tabdump ColorTypeAll;
#X obj 682 186 sel 0 1 2 3 4 5 6 7;
#X obj 727 53 bng 15 250 50 0 empty empty empty 17 7 0 10 -262144 -1
-1;
#X obj 825 445 unpack f f f;
#X obj 752 487 tabwrite valRed;
#X obj 856 487 tabwrite valGreen;
#X obj 969 487 tabwrite valBlue;
#X msg 630 422 0 0 0;
#X msg 653 401 0 0 0;
#X msg 678 376 1 1 1;
#X msg 726 321 1 0 0;
#X msg 750 294 1 1 0;
#X msg 758 272 0 1 0;
#X msg 773 236 0 0 1;
#X obj 723 149 t a b;
#X obj 850 186 + 1;
#X msg 712 351 0.5 0.5 0.5;
#X msg 926 173 0.5 0.5 0.5;
#X obj 709 117 list-drip;
#X obj 848 218 mod 91;
#X msg 859 123 -1;
#X obj 849 164 f -1;
#X obj 841 275 t f f f;
#X obj 584 31 t b b b;
#X obj 589 137 until;
#X msg 592 98 91;
#X obj 550 18 bng 15 250 50 0 empty empty empty 17 7 0 10 -262144 -1
-1;
#X obj 69 435 tabdump drawImage;
#X obj 73 481 outlet;
#X obj 584 5 inlet;
#X obj 356 289 tabread valGreen;
#X obj 466 291 tabread valBlue;
#X msg 858 384 0 0 1;
#X connect 0 0 7 0;
#X connect 1 0 7 3;
#X connect 2 0 3 0;
#X connect 3 0 4 1;
#X connect 3 0 9 0;
#X connect 3 0 11 0;
#X connect 4 0 2 0;
#X connect 5 0 4 0;
#X connect 7 0 6 0;
#X connect 8 0 6 1;
#X connect 10 0 4 1;
#X connect 11 0 0 0;
#X connect 11 1 55 0;
#X connect 11 2 56 0;
#X connect 11 3 1 0;
#X connect 11 4 8 0;
#X connect 25 0 43 0;
#X connect 26 0 32 0;
#X connect 26 1 33 0;
#X connect 26 2 34 0;
#X connect 26 3 41 0;
#X connect 26 4 35 0;
#X connect 26 5 36 0;
#X connect 26 6 37 0;
#X connect 26 7 38 0;
#X connect 27 0 25 0;
#X connect 28 0 29 0;
#X connect 28 1 30 0;
#X connect 28 2 31 0;
#X connect 32 0 28 0;
#X connect 33 0 28 0;
#X connect 34 0 28 0;
#X connect 35 0 28 0;
#X connect 36 0 28 0;
#X connect 37 0 28 0;
#X connect 38 0 28 0;
#X connect 39 0 26 0;
#X connect 39 1 46 0;
#X connect 40 0 44 0;
#X connect 41 0 28 0;
#X connect 43 0 39 0;
#X connect 44 0 46 1;
#X connect 44 0 47 0;
#X connect 45 0 46 1;
#X connect 46 0 40 0;
#X connect 47 0 29 1;
#X connect 47 1 30 1;
#X connect 47 2 31 1;
#X connect 48 0 52 0;
#X connect 48 1 50 0;
#X connect 48 2 25 0;
#X connect 49 0 4 0;
#X connect 50 0 49 0;
#X connect 51 0 48 0;
#X connect 52 0 53 0;
#X connect 54 0 48 0;
#X connect 55 0 7 1;
#X connect 56 0 7 2;
#X connect 57 0 28 0;
#X restore 177 172 pd drawImage;
#X msg 103 203 RGBA;
#X obj 81 126 alpha;
#X obj 86 351 r blurOnOff;
#X obj 53 327 rotateXYZ 0 180 0;
#X msg 177 285 0;
#X msg 217 287 180;
#X obj 202 254 sel 0 1;
#X obj 203 230 r flipImage;
#X connect 0 0 3 0;
#X connect 1 0 0 0;
#X connect 2 0 1 0;
#X connect 4 0 6 0;
#X connect 5 0 15 0;
#X connect 6 0 13 0;
#X connect 6 1 11 0;
#X connect 7 0 12 0;
#X connect 8 0 4 0;
#X connect 9 0 8 0;
#X connect 11 0 5 1;
#X connect 12 0 5 0;
#X connect 13 0 5 0;
#X connect 14 0 2 0;
#X connect 15 0 0 0;
#X connect 16 0 15 2;
#X connect 17 0 15 2;
#X connect 18 0 16 0;
#X connect 18 1 17 0;
#X connect 19 0 18 0;
#X restore 110 203 pd createDisplay;
#X obj 110 179 tgl 15 0 empty empty empty 17 7 0 10 -262144 -1 -1 0
1;
#N canvas 517 92 823 285 videoFormat 0;
#X obj 278 207 pix_resize 13 7;
#X obj 255 21 r Dimg;
#X obj 463 13 r B;
#X obj 254 248 s img;
#X msg 29 100 quality \$1;
#X obj 29 80 tgl 15 0 empty qual empty 17 7 0 10 -262144 -1 -1 0 1
;
#X obj 75 235 rectangle 5.33 4, f 17;
#X obj 76 142 r img;
#X obj 76 173 spigot;
#X obj 75 197 pix_texture;
#X obj 123 146 tgl 15 0 empty empty empty 17 7 0 10 -262144 -1 -1 0
1;
#X obj 343 14 inlet videoMode;
#X obj 577 8 r RGBimg;
#X obj 616 247 rectangle 5.33 4, f 17;
#X obj 616 196 spigot;
#X obj 616 222 pix_texture;
#X obj 699 10 inlet colorDebug;
#X obj 577 148 pix_resize 13 7;
#X msg 714 87 dimen 800 600;
#X msg 752 108 dimen 13 7;
#X msg 539 196 quality \$1;
#X obj 539 178 tgl 15 0 empty qual empty 17 7 0 10 -262144 -1 -1 0
1;
#X text 542 25 visualize color image;
#X text 53 46 visualize real Depth image;
#X obj 699 34 sel 0 1 2;
#X msg 699 168 0;
#X obj 727 199 tgl 15 0 empty empty empty 17 7 0 10 -262144 -1 -1 0
1;
#X msg 745 170 1;
#X obj 752 60 t b b;
#X obj 714 63 t b b;
#X msg 143 109 0;
#X obj 312 69 t b b;
#X msg 185 110 1;
#X obj 373 73 t b b;
#X obj 322 42 sel 0 1 2;
#X msg 327 116 0;
#X msg 368 120 1;
#X obj 255 168 demux 0 1;
#X msg 463 34 0;
#X connect 0 0 3 0;
#X connect 1 0 37 0;
#X connect 2 0 38 0;
#X connect 4 0 9 0;
#X connect 5 0 4 0;
#X connect 7 0 8 0;
#X connect 8 0 9 0;
#X connect 9 0 6 0;
#X connect 10 0 8 1;
#X connect 11 0 34 0;
#X connect 12 0 17 0;
#X connect 14 0 15 0;
#X connect 15 0 13 0;
#X connect 16 0 24 0;
#X connect 17 0 14 0;
#X connect 18 0 17 0;
#X connect 19 0 17 0;
#X connect 20 0 15 0;
#X connect 21 0 20 0;
#X connect 24 0 25 0;
#X connect 24 1 29 0;
#X connect 24 2 28 0;
#X connect 25 0 26 0;
#X connect 26 0 14 1;
#X connect 27 0 26 0;
#X connect 28 0 19 0;
#X connect 28 1 27 0;
#X connect 29 0 18 0;
#X connect 29 1 27 0;
#X connect 30 0 10 0;
#X connect 31 0 32 0;
#X connect 31 1 35 0;
#X connect 32 0 10 0;
#X connect 33 0 32 0;
#X connect 33 1 36 0;
#X connect 34 0 30 0;
#X connect 34 1 31 0;
#X connect 34 2 33 0;
#X connect 35 0 37 1;
#X connect 36 0 37 1;
#X connect 37 0 3 0;
#X connect 37 1 0 0;
#X connect 38 0 34 0;
#X restore 15 271 pd videoFormat;
#X obj 16 248 hradio 15 1 0 3 empty empty empty 0 -8 0 10 -262144 -1
-1 0;
#N canvas 257 110 447 357 kinect 0;
#X text 160 53 gemhead for rgb;
#X text 280 52 and for depth;
#X text 167 134 rgb;
#X msg 90 104 info;
#X obj 88 14 r \$0-prop;
#X obj 152 33 tgl 15 0 empty empty empty 17 7 0 10 -262144 -1 -1 0
1;
#X obj 273 34 tgl 15 0 empty empty empty 17 7 0 10 -262144 -1 -1 0
1;
#X text 219 134 Depth;
#X obj 224 301 s Dimg;
#X obj 153 301 s RGBimg;
#X text 74 85 get serial;
#X obj 224 161 pix_crop 32 0 580 440;
#X obj 153 111 pix_freenect 0 1 1;
#X obj 152 73 gemhead 48;
#X obj 273 72 gemhead 49;
#X obj 153 269 pix_flip;
#X obj 224 270 pix_flip;
#X msg 74 186 horizontal;
#X obj 55 131 r flip;
#X obj 48 161 sel 0 1;
#X msg 37 212 none;
#X connect 3 0 12 0;
#X connect 4 0 12 0;
#X connect 5 0 13 0;
#X connect 6 0 14 0;
#X connect 11 0 16 0;
#X connect 12 0 15 0;
#X connect 12 1 11 0;
#X connect 13 0 12 0;
#X connect 14 0 12 1;
#X connect 15 0 9 0;
#X connect 16 0 8 0;
#X connect 17 0 15 0;
#X connect 17 0 16 0;
#X connect 18 0 19 0;
#X connect 19 0 20 0;
#X connect 19 1 17 0;
#X connect 20 0 15 0;
#X connect 20 0 16 0;
#X restore 15 178 pd kinect;
#N canvas 105 252 715 433 viewValues 0;
#X obj 125 38 r general_tempo;
#X obj 139 71 s general_tempoView;
#X obj 101 328 pack 0 0 0;
#X obj 101 300 f;
#X msg 78 252 bang;
#X floatatom 133 270 3 0 29 0 - - -, f 3;
#X text 16 305 background;
#X text 160 255 label-color;
#X msg 101 370 \; general_tempoView color \$1 \$2 \$3;
#X obj 128 144 sel 0 1;
#X obj 127 111 < 500;
#X msg 167 174 13;
#X obj 145 215 t b f;
#X msg 115 181 11;
#X obj 309 57 r play_mode;
#X obj 310 98 sel 0 3;
#X obj 298 187 s Offset-01-r;
#X msg 303 154 0;
#X obj 421 150 tabread HUE;
#X obj 496 149 tabread SATURATION;
#X obj 612 147 tabread VALUE;
#X floatatom 431 110 5 0 0 0 - - -, f 5;
#X floatatom 421 187 5 0 0 0 - - -, f 5;
#X floatatom 496 184 5 0 0 0 - - -, f 5;
#X floatatom 612 183 5 0 0 0 - - -, f 5;
#X text 456 86 debug color in pixels;
#X obj 430 83 bng 15 250 50 0 empty empty empty 17 7 0 10 -262144 -1
-1;
#X connect 0 0 1 0;
#X connect 0 0 10 0;
#X connect 2 0 8 0;
#X connect 3 0 2 0;
#X connect 4 0 3 0;
#X connect 5 0 2 1;
#X connect 9 0 13 0;
#X connect 9 1 11 0;
#X connect 10 0 9 0;
#X connect 11 0 12 0;
#X connect 12 0 4 0;
#X connect 12 1 5 0;
#X connect 13 0 12 0;
#X connect 14 0 15 0;
#X connect 15 0 17 0;
#X connect 15 1 17 0;
#X connect 17 0 16 0;
#X connect 18 0 22 0;
#X connect 19 0 23 0;
#X connect 20 0 24 0;
#X connect 21 0 18 0;
#X connect 21 0 19 0;
#X connect 21 0 20 0;
#X connect 26 0 21 0;
#X restore 260 254 pd viewValues;
#X text 14 231 depthDebug;
#X text 92 232 colorDebug;
#X obj 260 175 s flip;
#X obj 260 152 tgl 15 0 empty empty empty 17 7 0 10 -262144 -1 -1 0
1;
#X obj 261 207 tgl 15 0 empty empty empty 17 7 0 10 -262144 -1 -1 0
1;
#X obj 261 230 s flipImage;
#X obj 96 248 hradio 15 1 0 3 empty empty empty 0 -8 0 10 -262144 -1
-1 0;
#X text 127 177 visualize;
#X text 276 154 flip1 (audio&image);
#X text 280 206 flip2 (only image);
#X connect 2 0 3 0;
#X connect 8 0 10 0;
#X connect 10 0 9 0;
#X connect 11 0 8 0;
#X connect 16 0 15 0;
#X connect 18 0 17 0;
#X connect 24 0 23 0;
#X connect 25 0 26 0;
#X connect 27 0 17 1;
#X restore 36 132 pd stuff;
#X obj 357 216 vsl 50 150 0 1 0 0 RevLev RevLev-set Reverb 0 -9 0 10
-262144 -1 -1 0 1;
#X obj 35 21 tgl 50 0 onOff empty empty 17 7 0 10 -260097 -1 -1 0 1
;
#X text 98 35 Synestheatre On;
#X obj 170 231 vsl 20 128 -30 30 0 0 kin_angle empty empty 0 -9 0 10
-262144 -1 -1 0 1;
#X msg 170 206 0;
#X obj 198 347 nbx 5 14 -1e+37 1e+37 0 0 empty angleVal empty 0 -8
0 10 -262144 -99865 -1 0 256;
#X text 169 189 kinect angle;
#X obj 482 23 nbx 5 14 -1e+37 1e+37 0 0 empty general_tempoView empty
0 -8 0 10 -262144 -128992 -262144 500 256;
#X obj 263 67 hsl 200 30 0 1 0 0 Offset-01 Offset-01-r offset(%) 70
16 0 10 -262144 -1 -99865 0 1;
#X obj 482 69 nbx 5 14 -1e+37 1e+37 0 0 empty offsetView empty 0 -8
0 10 -262144 -99865 -1 0 256;
#X obj 26 251 nbx 5 14 -1e+37 1e+37 0 0 empty empty empty 0 -8 0 10
-262144 -99865 -1 10 256;
#X obj 26 349 nbx 5 14 -1e+37 1e+37 0 0 empty offsetView empty 0 -8
0 10 -262144 -99865 -1 0 256;
#X text 197 208 horiz;
#N canvas 1 77 484 306 ColorOffsets 0;
#X obj 13 21 vsl 40 250 0 1 0 0 Offset-1 Offset-1-r empty 0 -9 0 10
-1 -262144 -1 0 1;
#X obj 66 21 vsl 40 250 0 1 0 0 Offset-2 Offset-2-r empty 0 -9 0 10
-262144 -1 -1 0 1;
#X obj 120 21 vsl 40 250 0 1 0 0 Offset-3 Offset-3-r empty 0 -9 0 10
-128992 -1 -1 0 1;
#X obj 174 21 vsl 40 250 0 1 0 0 Offset-4 Offset-4-r empty 0 -9 0 10
-258113 -1 -1 0 1;
#X obj 227 21 vsl 40 250 0 1 0 0 Offset-5 Offset-5-r empty 0 -9 0 10
-257985 -1 -1 0 1;
#X obj 281 21 vsl 40 250 0 1 0 0 Offset-6 Offset-6-r empty 0 -9 0 10
-4034 -1 -1 0 1;
#X obj 334 21 vsl 40 250 0 1 0 0 Offset-7 Offset-7-r empty 0 -9 0 10
-4160 -262144 -1 0 1;
#X obj 396 20 bng 60 250 50 0 offset0 empty set_to_0 5 28 0 10 -262144
-1 -1;
#X obj 396 115 bng 60 250 50 0 stair_offset empty stair 15 28 0 10
-262144 -1 -1;
#N canvas 947 255 284 300 set_offset 0;
#X msg 42 102 \; Offset-1-r 0 \; Offset-2-r 0 \; Offset-3-r 0 \; Offset-4-r
0 \; Offset-5-r 0 \; Offset-6-r 0 \; Offset-7-r 0 \;;
#X obj 42 34 r offset0;
#X obj 150 35 r stair_offset;
#X msg 150 101 \; Offset-1-r 0 \; Offset-7-r 0.125 \; Offset-4-r 0.25
\; Offset-6-r 0.375 \; Offset-3-r 0.5 \; Offset-5-r 0.625 \; Offset-2-r
0.75 \;;
#X connect 1 0 0 0;
#X connect 2 0 3 0;
#X restore 385 254 pd set_offset;
#X restore 445 217 pd ColorOffsets;
#X obj 443 328 tgl 15 0 DistanceType empty empty 17 7 0 10 -262144
-1 -1 0 1;
#X text 466 329 Distance Lin/Nat;
#N canvas 166 204 230 250 Natural 0;
#X obj 34 63 vradio 15 1 0 3 NaturalDistanceType empty empty 0 -8 0
10 -262144 -1 -1 0;
#X text 60 63 1/$f1*$f1;
#X restore 442 353 pd Natural Distance Types;
#X obj 444 247 tgl 15 0 blurOnOff empty blur_display 17 7 0 10 -262144
-1 -1 0 1;
#X connect 4 0 25 0;
#X connect 5 0 4 0;
#X connect 6 0 26 0;
#X connect 7 0 6 0;
#X connect 19 0 18 0;
