#N canvas 777 93 474 329 10;
#X obj 143 24 tgl 15 1 empty empty empty 17 7 0 10 -262144 -1 -1 1
1;
#X msg 143 44 \; pd dsp \$1;
#X obj 109 276 dac~;
#X floatatom 238 189 5 0 0 0 - - -, f 5;
#X obj 42 201 catch~ som-l;
#X obj 129 201 catch~ som-r;
#X obj 238 101 vsl 15 78 0 5 0 0 empty volume Volume 0 -9 0 10 -262144
-1 -1 0 1;
#X obj 238 212 lop~ 0.5;
#X obj 42 240 *~;
#X obj 129 240 *~;
#X obj 293 51 s sample_bank-r;
#X obj 293 26 hradio 15 1 0 3 empty empty empty 0 -8 0 10 -262144 -1
-1 0;
#X text 291 8 0 samples 1 test samples;
#N canvas 193 182 585 528 play_mode 0;
#X obj 65 394 tgl 15 0 empty empty empty 17 7 0 10 -262144 -1 -1 0
1;
#X obj 190 434 s GoOnce;
#X obj 190 409 metro 500;
#X obj 190 369 tgl 15 0 empty empty empty 17 7 0 10 -262144 -1 -1 0
1;
#X floatatom 225 376 5 0 0 0 - - -, f 5;
#X obj 83 152 sel 0 1 2 3;
#X obj 341 475 s GoOnce;
#X obj 341 450 metro 500;
#X obj 334 403 tgl 15 0 empty empty empty 17 7 0 10 -262144 -1 -1 0
1;
#X obj 337 88 r D-45;
#X obj 339 238 sel 0;
#X obj 366 276 t f b;
#X msg 354 310 1;
#X msg 314 309 0;
#X obj 339 218 line 0 1;
#X msg 339 196 \$1 100;
#X obj 339 176 spigot;
#X msg 149 201 1;
#X obj 194 92 hsl 128 15 0 5000 0 0 empty empty empty -2 -8 0 10 -262144
-1 -1 0 1;
#X obj 27 14 r play_mode;
#X text 242 13 soundModes \; 1 play each pixel at his own tempo relative
to Depth \; 2 play all at regular tempo \; 3 play all at once \, relative
to central pixel depth \; 4 pingpong mode;
#X obj 145 13 r general_tempo;
#X floatatom 153 129 5 0 0 0 - - -, f 5;
#X msg 100 200 1;
#X obj 65 415 s Modo1-Go;
#X obj 50 55 t f b;
#X obj 84 108 s ModoOff;
#X msg 84 79 0;
#X obj 56 369 r ModoOff;
#X obj 92 309 r ModoOff;
#X obj 385 149 r ModoOff;
#X obj 418 186 t f f;
#X obj 309 374 change;
#X obj 339 133 * 1000;
#X floatatom 414 303 5 0 0 0 - - -, f 5;
#X obj 338 112 expr 1 - $f1;
#X obj 399 328 * 2;
#X text 419 351 set min depth tempo;
#X obj 276 413 bng 15 250 50 0 empty empty empty 17 7 0 10 -262144
-1 -1;
#X obj 382 396 + 300;
#X text 420 392 500ms is the sample size \;;
#X connect 0 0 24 0;
#X connect 2 0 1 0;
#X connect 3 0 2 0;
#X connect 4 0 2 1;
#X connect 5 0 0 0;
#X connect 5 1 23 0;
#X connect 5 2 17 0;
#X connect 5 3 23 0;
#X connect 7 0 6 0;
#X connect 8 0 7 0;
#X connect 9 0 35 0;
#X connect 10 0 13 0;
#X connect 10 1 11 0;
#X connect 11 0 36 0;
#X connect 11 1 12 0;
#X connect 12 0 32 0;
#X connect 13 0 32 0;
#X connect 14 0 10 0;
#X connect 15 0 14 0;
#X connect 16 0 15 0;
#X connect 17 0 16 1;
#X connect 18 0 2 1;
#X connect 19 0 25 0;
#X connect 21 0 18 0;
#X connect 21 0 22 0;
#X connect 23 0 3 0;
#X connect 25 0 5 0;
#X connect 25 1 27 0;
#X connect 27 0 26 0;
#X connect 28 0 0 0;
#X connect 29 0 3 0;
#X connect 30 0 31 0;
#X connect 31 0 14 0;
#X connect 31 1 16 1;
#X connect 32 0 8 0;
#X connect 33 0 16 0;
#X connect 34 0 36 1;
#X connect 35 0 33 0;
#X connect 36 0 39 0;
#X connect 38 0 1 0;
#X connect 39 0 7 1;
#X restore 181 13 pd play_mode;
#N canvas 493 112 624 621 interconn 0;
#X obj 61 24 netreceive 2000;
#X obj 31 527 unpack f f;
#X obj 31 576 s;
#X obj 63 501 s go-r;
#X obj 46 552 makefilename D-%d;
#X obj 369 516 netsend;
#X msg 372 362 connect localhost 2001;
#X msg 414 391 disconnect;
#X obj 370 544 tgl 15 0 empty empty empty 17 7 0 10 -262144 -1 -1 0
1;
#X obj 372 302 > 0;
#X obj 372 277 change;
#X obj 372 332 sel 1;
#X obj 431 430 r GoOnce;
#X msg 418 475 send /tik bang;
#X obj 95 477 s play_mode;
#X obj 127 454 s general_tempo;
#X obj 159 425 s maxThr;
#X obj 191 402 s minThr;
#X obj 370 575 outlet;
#X obj 223 374 s volume;
#X msg 244 348 0;
#X obj 168 31 s connRecOn;
#X obj 372 256 r connRecOn;
#X obj 238 291 r connRecOn;
#X obj 238 324 sel 0 1;
#X obj 255 258 s RevLev;
#X obj 287 171 unpack f f;
#X obj 302 198 makefilename Color-%d;
#X obj 287 219 s;
#X text 213 428 min and max thr not used;
#X obj 426 158 tabwrite ColorOffsetValues;
#X text 510 99 list Val \, Index;
#X obj 31 65 route /Dval_pixN /go /play_mode /general_tempo /maxThr
/minThr /vol /RevLev /ColorType_pixN /Offset /ColorOffsetList /flip
;
#X obj 457 125 s flip;
#X obj 325 145 s Offset;
#X connect 0 0 32 0;
#X connect 0 1 21 0;
#X connect 1 0 2 0;
#X connect 1 1 4 0;
#X connect 4 0 2 1;
#X connect 5 0 8 0;
#X connect 6 0 5 0;
#X connect 7 0 5 0;
#X connect 8 0 18 0;
#X connect 9 0 11 0;
#X connect 10 0 9 0;
#X connect 11 0 6 0;
#X connect 12 0 13 0;
#X connect 13 0 5 0;
#X connect 20 0 19 0;
#X connect 22 0 10 0;
#X connect 23 0 24 0;
#X connect 24 0 20 0;
#X connect 26 0 28 0;
#X connect 26 1 27 0;
#X connect 27 0 28 1;
#X connect 32 0 1 0;
#X connect 32 1 3 0;
#X connect 32 2 14 0;
#X connect 32 3 15 0;
#X connect 32 4 16 0;
#X connect 32 5 17 0;
#X connect 32 6 19 0;
#X connect 32 7 25 0;
#X connect 32 8 26 0;
#X connect 32 9 34 0;
#X connect 32 10 30 0;
#X connect 32 11 33 0;
#X restore 29 11 pd interconn;
#X text 280 283 Mick & X LabIO 2015;
#X obj 30 33 tgl 15 0 empty empty empty 17 7 0 10 -262144 -1 -1 0 1
;
#X text 49 32 connected;
#N canvas 453 138 671 482 REVERB 0;
#X obj 88 378 freeverb~;
#X msg 16 40 roomsize \$1;
#X msg 16 62 damping \$1;
#X msg 16 84 width \$1;
#X msg 322 211 print;
#X msg 20 117 freeze \$1;
#X msg 20 139 bypass \$1;
#X text 362 211 - print the current values of the above parameters
;
#X text 96 117 - start/stop freeze of reverb tail \, using 1 or 0;
#X text 100 138 - bypass the reverb processing \, using a 1 or 0;
#X text 103 61 - amount of damping of room's surfaces (default: 0.5)
;
#X text 85 85 - stereo width of reverb (default: 1);
#X text 107 39 - size of the room to be simulated (default=0.85);
#X msg 313 325 wet 1 \, dry 0;
#X obj 312 296 loadbang;
#X obj 55 259 catch~ rev-l;
#X obj 143 259 catch~ rev-r;
#X obj 87 418 throw~ som-l;
#X obj 172 421 throw~ som-l;
#X msg 45 195 bypass \$1;
#X obj 45 171 tgl 15 0 empty empty empty 17 7 0 10 -262144 -1 -1 0
1;
#X connect 0 0 17 0;
#X connect 0 1 18 0;
#X connect 4 0 0 0;
#X connect 13 0 0 0;
#X connect 14 0 13 0;
#X connect 15 0 0 0;
#X connect 16 0 0 1;
#X connect 20 0 19 0;
#X restore 353 213 pd REVERB;
#X obj 29 54 playD_all;
#N canvas 1 169 475 187 init 0;
#X floatatom 32 79 5 0 0 0 - - -, f 5;
#X floatatom 155 79 5 0 0 0 - - -, f 5;
#X obj 155 98 s Tempomin;
#X obj 32 98 s TempoRange;
#X msg 32 51 3000;
#X msg 155 57 200;
#X obj 91 24 loadbang;
#X obj 261 34 table bogus;
#X obj 260 69 table ColorOffsetValues 8;
#X connect 0 0 3 0;
#X connect 1 0 2 0;
#X connect 4 0 0 0;
#X connect 5 0 1 0;
#X connect 6 0 4 0;
#X connect 6 0 5 0;
#X restore 30 98 pd init;
#X connect 0 0 1 0;
#X connect 3 0 7 0;
#X connect 4 0 9 0;
#X connect 5 0 8 0;
#X connect 6 0 3 0;
#X connect 7 0 8 1;
#X connect 7 0 9 1;
#X connect 8 0 2 0;
#X connect 9 0 2 1;
#X connect 11 0 10 0;
#X connect 14 0 16 0;
