#N canvas 523 55 557 636 10;
#X obj 146 335 pix_data;
#X obj 168 366 unpack f f f;
#X obj 202 403 * 256;
#X obj 132 403 * 65536;
#X obj 132 433 +;
#X text 241 402 second and first 8 bits;
#X obj 132 458 / 1000;
#X text 159 430 depthmode 1;
#X obj 139 39 r img;
#X obj 165 270 tabread coorX;
#X obj 253 271 tabread coorY;
#X obj 345 597 tabwrite valD;
#X obj 420 553 r bdata;
#X obj 420 575 \$1;
#X obj 165 248 \$2;
#X obj 253 247 \$3;
#X obj 132 576 pack f f;
#X obj 132 520 \$1;
#X obj 132 494 t b f;
#X text 15 588 sends out a pack \; with pixN and Dval;
#X obj 132 607 s OutList;
#X obj 119 184 t a b;
#X obj 253 305 expr 1 - $f1;
#X obj 146 213 t b b b;
#N canvas 677 278 451 421 scale-math 0;
#X obj 99 24 inlet;
#X obj 94 397 outlet;
#X obj 94 178 min 10000;
#X obj 140 148 r maxThr;
#X obj 121 199 r minThr;
#X obj 94 222 max 0;
#X obj 121 251 r minThr;
#X obj 148 273 r maxThr;
#X obj 94 304 maxlib/scale 0 10 0 1 0;
#X obj 94 363 expr 1 - $f1;
#X obj 99 47 t f f;
#X obj 250 94 < 0;
#X obj 259 65 r minThr;
#X obj 99 107 spigot;
#X obj 250 117 t f f;
#X obj 354 282 sel 0;
#X obj 253 143 == 0;
#X obj 248 187 tgl 15 0 empty empty empty 17 7 0 10 -262144 -1 -1 1
1;
#X floatatom 181 28 5 0 0 0 - - -, f 5;
#X floatatom 307 100 5 0 0 0 - - -, f 5;
#X floatatom 27 355 5 0 0 0 - - -, f 5;
#X connect 0 0 10 0;
#X connect 0 0 18 0;
#X connect 2 0 5 0;
#X connect 3 0 2 1;
#X connect 4 0 5 1;
#X connect 5 0 8 0;
#X connect 6 0 8 1;
#X connect 7 0 8 2;
#X connect 8 0 9 0;
#X connect 8 0 20 0;
#X connect 9 0 1 0;
#X connect 10 0 13 0;
#X connect 10 1 11 0;
#X connect 11 0 14 0;
#X connect 12 0 11 1;
#X connect 12 0 19 0;
#X connect 13 0 2 0;
#X connect 14 0 16 0;
#X connect 14 1 15 0;
#X connect 15 1 9 0;
#X connect 16 0 13 1;
#X connect 16 0 17 0;
#X restore 177 519 pd scale-math;
#X text 257 441 receive table index to write to;
#X obj 139 142 spigot;
#X obj 172 121 tgl 15 0 empty empty empty 17 7 0 10 -262144 -1 -1 0
1;
#X obj 304 23 r ligaGet-\$1;
#X obj 345 204 sel 0;
#X obj 304 60 t f f;
#X obj 172 65 r play_mode;
#X obj 172 89 != 3;
#X obj 417 505 t b f f;
#X msg 358 253 0;
#X connect 0 1 1 0;
#X connect 1 0 3 0;
#X connect 1 1 2 0;
#X connect 2 0 4 1;
#X connect 3 0 4 0;
#X connect 4 0 6 0;
#X connect 6 0 18 0;
#X connect 8 0 26 0;
#X connect 9 0 0 2;
#X connect 10 0 22 0;
#X connect 12 0 13 0;
#X connect 13 0 11 1;
#X connect 14 0 9 0;
#X connect 15 0 10 0;
#X connect 16 0 20 0;
#X connect 17 0 16 0;
#X connect 18 0 17 0;
#X connect 18 1 24 0;
#X connect 21 0 0 1;
#X connect 21 1 23 0;
#X connect 22 0 0 3;
#X connect 23 0 0 0;
#X connect 23 1 14 0;
#X connect 23 2 15 0;
#X connect 24 0 11 0;
#X connect 24 0 16 1;
#X connect 26 0 21 0;
#X connect 27 0 26 1;
#X connect 28 0 30 0;
#X connect 29 0 34 0;
#X connect 30 0 29 0;
#X connect 30 1 27 0;
#X connect 31 0 32 0;
#X connect 32 0 27 0;
#X connect 33 0 16 0;
#X connect 33 1 16 1;
#X connect 33 2 11 0;
#X connect 34 0 33 0;
