#N canvas 435 118 862 641 10;
#X obj 146 325 pix_data;
#X obj 168 356 unpack f f f;
#X obj 202 393 * 256;
#X obj 132 393 * 65536;
#X obj 132 423 +;
#X text 241 392 second and first 8 bits;
#X obj 132 448 / 1000;
#X text 159 420 depthmode 1;
#X obj 139 29 r img;
#X obj 165 260 tabread coorX;
#X obj 253 261 tabread coorY;
#X obj 265 591 tabwrite valD;
#X obj 340 547 r bdata;
#X obj 340 569 \$1;
#X obj 165 238 \$2;
#X obj 253 237 \$3;
#X obj 132 566 pack f f;
#X obj 203 526 \$1;
#X text 15 578 sends out a pack \; with pixN and Dval;
#X obj 132 597 s OutList;
#X obj 119 174 t a b;
#X obj 253 295 expr 1 - $f1;
#X obj 146 203 t b b b;
#N canvas 625 96 705 610 scale-math 0;
#X obj 99 24 inlet;
#X obj 164 585 outlet;
#X obj 94 318 min 10000;
#X obj 122 292 r maxThr;
#X obj 121 339 r minThr;
#X obj 94 362 max 0;
#X obj 121 391 r minThr;
#X obj 148 413 r maxThr;
#X obj 94 503 expr 1 - $f1;
#X obj 94 167 t f f;
#X obj 121 194 < 0;
#X obj 136 168 r minThr;
#X obj 94 267 spigot;
#X obj 121 217 t f f;
#X obj 262 438 sel 0;
#X obj 124 243 == 0;
#X obj 94 444 maxlib/scale 0 10 0 1 0;
#X obj 331 139 t f f f;
#X obj 474 218 < 0;
#X obj 489 192 r minThr;
#X obj 468 269 t f f;
#X obj 475 242 == 0;
#X obj 353 234 spigot;
#X obj 468 305 sel 1;
#X floatatom 396 92 5 0 0 0 - - -, f 5;
#X obj 354 381 spigot;
#X obj 552 332 t f f;
#X obj 559 305 == 0;
#X obj 552 370 sel 1;
#X obj 573 255 r maxThr;
#X obj 558 280 > 10;
#X obj 99 79 LabIO_mux-2;
#X obj 354 509 LabIO_mux-4;
#X obj 215 39 r DistanceType;
#X obj 440 471 r NaturalDistanceType;
#X obj 331 545 expr 1/($f1*$f1);
#X obj 328 194 max 0.1;
#X obj 593 91 expr 1/$f1;
#X text 590 67 0.1m 83dB;
#X text 401 49 implementar transformação de dB para RMS;
#X text 512 93 outra curva;
#X text 531 118 utilizar mm. em vez de m.;
#X text 436 137 sem modificar o valor que vai pro visual;
#X connect 0 0 31 0;
#X connect 2 0 5 0;
#X connect 3 0 2 1;
#X connect 4 0 5 1;
#X connect 5 0 16 0;
#X connect 6 0 16 1;
#X connect 7 0 16 2;
#X connect 8 0 1 0;
#X connect 9 0 12 0;
#X connect 9 1 10 0;
#X connect 10 0 13 0;
#X connect 11 0 10 1;
#X connect 12 0 2 0;
#X connect 13 0 15 0;
#X connect 13 1 14 0;
#X connect 14 1 8 0;
#X connect 15 0 12 1;
#X connect 16 0 8 0;
#X connect 17 0 36 0;
#X connect 17 1 30 0;
#X connect 17 2 18 0;
#X connect 18 0 21 0;
#X connect 19 0 18 1;
#X connect 20 0 23 0;
#X connect 20 1 22 1;
#X connect 21 0 20 0;
#X connect 22 0 25 0;
#X connect 23 1 1 0;
#X connect 24 0 17 0;
#X connect 25 0 32 0;
#X connect 26 0 28 0;
#X connect 26 1 25 1;
#X connect 27 0 26 0;
#X connect 28 1 1 0;
#X connect 29 0 30 1;
#X connect 30 0 27 0;
#X connect 31 0 9 0;
#X connect 31 1 17 0;
#X connect 32 0 35 0;
#X connect 33 0 31 1;
#X connect 34 0 32 1;
#X connect 35 0 1 0;
#X connect 36 0 22 0;
#X restore 105 491 pd scale-math;
#X obj 139 132 spigot;
#X obj 172 111 tgl 15 0 empty empty empty 17 7 0 10 -262144 -1 -1 1
1;
#X obj 304 13 r ligaGet-\$1;
#X obj 345 194 sel 0;
#X obj 172 55 r play_mode;
#X obj 172 79 != 3;
#X msg 362 311 0;
#X obj 524 38 r RGBimg;
#X obj 543 404 rgb2hsv;
#X obj 631 596 tabwrite HUE;
#X obj 631 498 unpack f f f;
#X obj 665 569 tabwrite SATURATION;
#X obj 693 547 tabwrite VALUE;
#X obj 543 457 t l b;
#X obj 559 121 spigot;
#X obj 592 100 tgl 15 0 empty empty empty 17 7 0 10 -262144 -1 -1 1
1;
#X obj 592 44 r play_mode;
#X obj 592 68 != 3;
#X obj 586 305 pix_data;
#X obj 605 240 tabread coorX;
#X obj 693 241 tabread coorY;
#X obj 605 218 \$2;
#X obj 693 217 \$3;
#X obj 559 154 t a b;
#X obj 693 275 expr 1 - $f1;
#X obj 586 183 t b b b;
#X obj 726 496 r bdata;
#X obj 726 518 \$1;
#N canvas 374 115 690 652 corClass 1;
#X obj 193 6 inlet;
#X obj 192 32 unpack f f f;
#X obj 467 378 spigot;
#X obj 87 309 spigot;
#X obj 178 201 sel 0 1;
#X obj 31 341 t f f f f;
#X obj 100 585 pack f f;
#X obj 205 538 r bdata;
#X obj 205 560 \$1;
#X obj 86 516 sel 0;
#X obj 263 265 f;
#X msg 128 258 1;
#X msg 161 259 0;
#X msg 190 261 1;
#X msg 221 263 0;
#X obj 197 230 t b b b;
#X obj 136 229 t b b;
#X obj 108 616 outlet;
#X obj 168 606 tabwrite ColorTypeAll;
#X obj 113 541 t f f;
#X msg 341 240 1;
#X text 373 241 if V less than threshold pixel is classified black
;
#X obj 122 143 spigot;
#X obj 169 142 spigot;
#X obj 313 84 t b f f;
#X text 365 368 red;
#X text 373 395 yellow;
#X text 376 422 green;
#X text 374 449 blue;
#X obj 174 175 < 0.2;
#X text 544 442 gray or white;
#X obj 467 465 expr if ($f1 > 0.9 \, 2 \, 3) \;;
#X text 445 514 grey is hard to get \, I increased the threshold value
from 0.75 to 0.9;
#X obj 305 55 > 0.5;
#X obj 114 367 expr if ($f1 > 0.65 || $f1 < 0.1 \, 4 \, 0);
#X obj 120 394 expr if ($f1 > 0.1 && $f1 < 0.35 \, 5 \, 0);
#X obj 125 421 expr if ($f1 > 0.35 && $f1 < 0.55 \, 6 \, 0);
#X obj 125 447 expr if ($f1 > 0.55 && $f1 < 0.65 \, 7 \, 0);
#X connect 0 0 1 0;
#X connect 1 0 22 0;
#X connect 1 1 23 0;
#X connect 1 2 33 0;
#X connect 2 0 31 0;
#X connect 3 0 5 0;
#X connect 4 0 16 0;
#X connect 4 1 15 0;
#X connect 5 0 37 0;
#X connect 5 1 36 0;
#X connect 5 2 35 0;
#X connect 5 3 34 0;
#X connect 6 0 17 0;
#X connect 7 0 8 0;
#X connect 8 0 6 1;
#X connect 8 0 18 1;
#X connect 9 1 19 0;
#X connect 10 0 2 0;
#X connect 11 0 3 1;
#X connect 12 0 2 1;
#X connect 13 0 2 1;
#X connect 14 0 3 1;
#X connect 15 0 10 0;
#X connect 15 1 13 0;
#X connect 15 2 14 0;
#X connect 16 0 12 0;
#X connect 16 1 11 0;
#X connect 19 0 6 0;
#X connect 19 1 18 0;
#X connect 20 0 19 0;
#X connect 22 0 3 0;
#X connect 23 0 29 0;
#X connect 24 0 20 0;
#X connect 24 1 23 1;
#X connect 24 1 22 1;
#X connect 24 2 10 1;
#X connect 29 0 4 0;
#X connect 31 0 9 0;
#X connect 33 0 24 0;
#X connect 34 0 9 0;
#X connect 35 0 9 0;
#X connect 36 0 9 0;
#X connect 37 0 9 0;
#X restore 511 540 pd corClass;
#X obj 304 50 t f f f;
#X obj 202 498 r bdata;
#X obj 337 499 t f f;
#X obj 559 363 demux;
#X obj 698 317 hradio 15 1 0 2 empty empty empty 0 -8 0 10 -262144
-1 -1 0;
#X obj 698 339 r colorSpace;
#X obj 600 405 rgb2HCL-lut;
#X obj 511 565 s ColorType_pixN;
#X connect 0 1 1 0;
#X connect 1 0 3 0;
#X connect 1 1 2 0;
#X connect 2 0 4 1;
#X connect 3 0 4 0;
#X connect 4 0 6 0;
#X connect 6 0 23 0;
#X connect 8 0 24 0;
#X connect 9 0 0 2;
#X connect 10 0 21 0;
#X connect 12 0 13 0;
#X connect 13 0 11 1;
#X connect 14 0 9 0;
#X connect 15 0 10 0;
#X connect 16 0 19 0;
#X connect 17 0 16 1;
#X connect 20 0 0 1;
#X connect 20 1 22 0;
#X connect 21 0 0 3;
#X connect 22 0 0 0;
#X connect 22 1 14 0;
#X connect 22 2 15 0;
#X connect 23 0 11 0;
#X connect 23 0 16 0;
#X connect 24 0 20 0;
#X connect 25 0 24 1;
#X connect 26 0 53 0;
#X connect 27 0 30 0;
#X connect 28 0 29 0;
#X connect 29 0 25 0;
#X connect 30 0 55 0;
#X connect 31 0 38 0;
#X connect 32 0 37 0;
#X connect 34 0 33 0;
#X connect 34 1 35 0;
#X connect 34 2 36 0;
#X connect 37 0 34 0;
#X connect 37 0 52 0;
#X connect 38 0 47 0;
#X connect 39 0 38 1;
#X connect 40 0 41 0;
#X connect 41 0 39 0;
#X connect 42 1 56 0;
#X connect 43 0 42 2;
#X connect 44 0 48 0;
#X connect 45 0 43 0;
#X connect 46 0 44 0;
#X connect 47 0 42 1;
#X connect 47 1 49 0;
#X connect 48 0 42 3;
#X connect 49 0 42 0;
#X connect 49 1 45 0;
#X connect 49 2 46 0;
#X connect 50 0 51 0;
#X connect 51 0 33 1;
#X connect 51 0 35 1;
#X connect 51 0 36 1;
#X connect 52 0 60 0;
#X connect 53 0 27 0;
#X connect 53 1 25 0;
#X connect 53 2 39 0;
#X connect 54 0 17 0;
#X connect 55 0 16 0;
#X connect 55 1 11 0;
#X connect 56 0 32 0;
#X connect 56 1 59 0;
#X connect 57 0 56 1;
#X connect 58 0 56 1;
#X connect 59 0 37 0;
