#N canvas 671 187 677 368 10;
#X obj 98 137 spigot;
#X obj 236 139 spigot;
#X obj 131 106 == 0;
#X obj 277 101 == 1;
#X obj 534 6 inlet control;
#X obj 157 269 outlet;
#X obj 295 138 spigot;
#X obj 433 140 spigot;
#X obj 101 18 inlet signal, f 15;
#X obj 202 271 outlet;
#X obj 260 271 outlet;
#X obj 326 276 outlet;
#X obj 466 99 == 3;
#X obj 329 101 == 2;
#X connect 0 0 5 0;
#X connect 1 0 9 0;
#X connect 2 0 0 1;
#X connect 3 0 1 1;
#X connect 4 0 12 0;
#X connect 4 0 13 0;
#X connect 4 0 3 0;
#X connect 4 0 2 0;
#X connect 6 0 10 0;
#X connect 7 0 11 0;
#X connect 8 0 0 0;
#X connect 8 0 1 0;
#X connect 8 0 6 0;
#X connect 8 0 7 0;
#X connect 12 0 7 1;
#X connect 13 0 6 1;
