#N canvas 1 54 450 300 10;
#X obj 98 137 spigot;
#X obj 236 139 spigot;
#X obj 231 72 == 0;
#X obj 267 72 == 1;
#X obj 247 45 t f f;
#X obj 247 23 inlet control;
#X obj 183 242 outlet;
#X obj 33 42 inlet signal-1;
#X obj 133 48 inlet signal-2;
#X connect 0 0 6 0;
#X connect 1 0 6 0;
#X connect 2 0 0 1;
#X connect 3 0 1 1;
#X connect 4 0 2 0;
#X connect 4 1 3 0;
#X connect 5 0 4 0;
#X connect 7 0 0 0;
#X connect 8 0 1 0;
