#N canvas 71 100 839 611 10;
#X obj 352 184 bng 15 250 50 0 empty empty empty 17 7 0 10 -262144
-1 -1;
#X obj 352 160 metro 500;
#X obj 352 46 tgl 15 0 empty empty empty 17 7 0 10 -262144 -1 -1 0
1;
#X obj 482 509 *~ 0.1;
#X obj 403 135 + 100;
#X obj 403 91 * 100;
#X obj 483 480 *~;
#X obj 657 245 sel 0;
#X obj 430 70 r TempoRange;
#X obj 430 113 r Tempomin;
#X obj 281 159 r GoOnce;
#X obj 274 385 tabplay~ bogus;
#X msg 343 359 set \$1;
#X obj 160 395 tabplay~ bogus;
#X msg 160 355 set \$1;
#X obj 383 507 *~ 0.1;
#X obj 384 478 *~;
#X obj 483 539 throw~ som-r;
#X obj 384 537 throw~ som-l;
#X obj 352 23 r Modo1-Go;
#X obj 157 526 *~ 0.1;
#X obj 58 524 *~ 0.1;
#X obj 158 463 *~;
#X obj 58 467 *~;
#X obj 70 395 lop~ 30;
#X obj 59 554 throw~ rev-l;
#X obj 159 556 throw~ rev-r;
#X obj 70 356 r D-\$1;
#X obj 657 156 r D-\$1;
#X obj 403 46 r D-\$1;
#X obj 157 499 *~;
#X obj 57 503 *~;
#X obj 212 459 lop~ 100;
#X obj 212 435 r RevLev;
#X obj 499 445 vline~;
#X msg 684 375 \$1 5;
#X obj 672 465 pack 0 f;
#X obj 717 413 r \$1-SampSize;
#X obj 717 439 / 44.1;
#X obj 352 281 t b b;
#N canvas 102 111 311 443 tables 0;
#X obj 89 14 table s\$1_1-r;
#X obj 89 41 table s\$1_1-l;
#X obj 88 73 table s\$1_2-r;
#X obj 88 100 table s\$1_2-l;
#X obj 88 133 table s\$1_3-r;
#X obj 88 160 table s\$1_3-l;
#X obj 88 196 table s\$1_4-r;
#X obj 88 223 table s\$1_4-l;
#X obj 87 255 table s\$1_5-r;
#X obj 87 282 table s\$1_5-l;
#X obj 87 315 table s\$1_6-r;
#X obj 87 342 table s\$1_6-l;
#X obj 87 374 table s\$1_7-r;
#X obj 87 401 table s\$1_7-l;
#X restore 49 151 pd tables;
#N canvas 183 241 1072 364 SetColorSample 0;
#X obj 389 12 r Color-\$1;
#X floatatom 36 115 5 0 0 0 - - -, f 5;
#X obj 375 73 sel 0 1 2 3 4 5 6 7;
#X obj 46 168 f \$1;
#X obj 44 221 makefilename s%d_1-r;
#X obj 31 276 makefilename s%d_1-l;
#X obj 188 174 f \$1;
#X obj 186 227 makefilename s%d_2-r;
#X obj 173 282 makefilename s%d_2-l;
#X obj 330 229 makefilename s%d_3-r;
#X obj 317 284 makefilename s%d_3-l;
#X obj 472 235 makefilename s%d_4-r;
#X obj 459 290 makefilename s%d_4-l;
#X obj 622 235 makefilename s%d_5-r;
#X obj 609 290 makefilename s%d_5-l;
#X obj 766 237 makefilename s%d_6-r;
#X obj 753 292 makefilename s%d_6-l;
#X obj 908 243 makefilename s%d_7-r;
#X obj 895 298 makefilename s%d_7-l;
#X obj 352 178 f \$1;
#X obj 494 184 f \$1;
#X obj 634 185 f \$1;
#X obj 776 191 f \$1;
#X obj 902 195 f \$1;
#X obj 44 251 s \$1-SetSample-r;
#X obj 31 307 s \$1-SetSample-l;
#X obj 186 257 s \$1-SetSample-r;
#X obj 173 313 s \$1-SetSample-l;
#X obj 330 259 s \$1-SetSample-r;
#X obj 317 315 s \$1-SetSample-l;
#X obj 472 265 s \$1-SetSample-r;
#X obj 459 321 s \$1-SetSample-l;
#X obj 622 265 s \$1-SetSample-r;
#X obj 609 321 s \$1-SetSample-l;
#X obj 766 267 s \$1-SetSample-r;
#X obj 753 323 s \$1-SetSample-l;
#X obj 908 273 s \$1-SetSample-r;
#X obj 895 329 s \$1-SetSample-l;
#X connect 0 0 1 0;
#X connect 0 0 2 0;
#X connect 2 1 3 0;
#X connect 2 2 6 0;
#X connect 2 3 19 0;
#X connect 2 4 20 0;
#X connect 2 6 21 0;
#X connect 2 7 22 0;
#X connect 2 8 23 0;
#X connect 3 0 4 0;
#X connect 3 0 5 0;
#X connect 4 0 24 0;
#X connect 5 0 25 0;
#X connect 6 0 7 0;
#X connect 6 0 8 0;
#X connect 7 0 26 0;
#X connect 8 0 27 0;
#X connect 9 0 28 0;
#X connect 10 0 29 0;
#X connect 11 0 30 0;
#X connect 12 0 31 0;
#X connect 13 0 32 0;
#X connect 14 0 33 0;
#X connect 15 0 34 0;
#X connect 16 0 35 0;
#X connect 17 0 36 0;
#X connect 18 0 37 0;
#X connect 19 0 9 0;
#X connect 19 0 10 0;
#X connect 20 0 11 0;
#X connect 20 0 12 0;
#X connect 21 0 13 0;
#X connect 21 0 14 0;
#X connect 22 0 15 0;
#X connect 22 0 16 0;
#X connect 23 0 17 0;
#X connect 23 0 18 0;
#X restore 53 109 pd SetColorSample;
#X obj 160 331 r \$1-SetSample-r;
#X obj 343 337 r \$1-SetSample-l;
#N canvas 1 54 450 300 InitSamples 0;
#X obj 52 239 soundfiler;
#X obj 52 182 pack s s s;
#X msg 53 210 read -resize \$1 \$2 \$3;
#X obj 46 95 makefilename ./Numbered_sound_files/%d.wav;
#X obj 50 264 s \$1-SampSize;
#X obj 97 149 makefilename s%d_1-l;
#X obj 233 148 makefilename s%d_1-r;
#X connect 0 0 4 0;
#X connect 1 0 2 0;
#X connect 2 0 0 0;
#X connect 3 0 1 0;
#X connect 5 0 1 1;
#X connect 6 0 1 2;
#X restore 50 72 pd InitSamples;
#X obj 352 258 delay 0;
#X obj 391 183 r Offset;
#X obj 391 206 * \$2;
#N canvas 415 212 934 626 loadSamples 0;
#X obj 267 535 soundfiler;
#X obj 267 478 pack s s s;
#X msg 268 506 read -resize \$1 \$2 \$3;
#X obj 418 0 r reset;
#X obj 265 560 s \$1-SampSize;
#X obj 435 702 s \$1-SetSample-r;
#X obj 565 696 s \$1-SetSample-l;
#X obj 342 35 until;
#X obj 342 73 f;
#X obj 372 74 + 1;
#X msg 341 3 7;
#X obj 345 136 + 1;
#X obj 345 106 mod 7;
#X obj 540 256 \$1;
#X obj 538 181 nbx 5 14 -1e+37 1e+37 0 0 empty empty empty 0 -8 0 10
-262144 -1 -1 0 256;
#X obj 102 367 makefilename number;
#X msg 133 285 set \$1;
#X obj 64 221 makefilename ./ColorTimbres/c%d/%%d.wav;
#X obj 55 298 \$1;
#X obj 100 253 t b a;
#X obj 248 7 loadbang;
#X obj 540 279 makefilename s%d_%%d-r;
#X obj 522 385 makefilename number;
#X msg 573 337 set \$1;
#X obj 540 305 t b a;
#X obj 495 350 f;
#X obj 343 186 t f b f b f;
#X obj 312 256 \$1;
#X obj 294 385 makefilename number;
#X msg 345 337 set \$1;
#X obj 312 305 t b a;
#X obj 267 350 f;
#X obj 313 279 makefilename s%d_%%d-l;
#X connect 0 0 4 0;
#X connect 1 0 2 0;
#X connect 2 0 0 0;
#X connect 3 0 10 0;
#X connect 7 0 8 0;
#X connect 8 0 9 0;
#X connect 8 0 12 0;
#X connect 9 0 8 1;
#X connect 10 0 7 0;
#X connect 11 0 26 0;
#X connect 12 0 11 0;
#X connect 13 0 21 0;
#X connect 15 0 1 0;
#X connect 16 0 15 0;
#X connect 17 0 19 0;
#X connect 18 0 15 0;
#X connect 19 0 18 0;
#X connect 19 1 16 0;
#X connect 20 0 10 0;
#X connect 21 0 24 0;
#X connect 22 0 1 2;
#X connect 23 0 22 0;
#X connect 24 0 25 0;
#X connect 24 1 23 0;
#X connect 25 0 22 0;
#X connect 26 0 17 0;
#X connect 26 1 27 0;
#X connect 26 2 31 1;
#X connect 26 3 13 0;
#X connect 26 4 25 1;
#X connect 27 0 32 0;
#X connect 28 0 1 1;
#X connect 29 0 28 0;
#X connect 30 0 31 0;
#X connect 30 1 29 0;
#X connect 31 0 28 0;
#X connect 32 0 30 0;
#X restore 52 33 pd loadSamples;
#X msg 657 322 0;
#N canvas 802 155 450 300 SetColorOffset 0;
#X restore 74 234 pd SetColorOffset;
#X obj 468 156 r Color-\$1;
#X obj 468 183 tabread ColorOffsetValues;
#X obj 456 241 +;
#X obj 468 209 t b f;
#X connect 0 0 45 0;
#X connect 1 0 0 0;
#X connect 2 0 1 0;
#X connect 3 0 17 0;
#X connect 4 0 1 1;
#X connect 5 0 4 0;
#X connect 6 0 3 0;
#X connect 7 0 49 0;
#X connect 7 1 35 0;
#X connect 8 0 5 1;
#X connect 9 0 4 1;
#X connect 10 0 0 0;
#X connect 11 0 6 0;
#X connect 11 0 22 0;
#X connect 12 0 11 0;
#X connect 13 0 16 0;
#X connect 13 0 23 0;
#X connect 14 0 13 0;
#X connect 15 0 18 0;
#X connect 16 0 15 0;
#X connect 19 0 2 0;
#X connect 20 0 26 0;
#X connect 21 0 25 0;
#X connect 22 0 30 0;
#X connect 23 0 31 0;
#X connect 24 0 22 1;
#X connect 24 0 23 1;
#X connect 27 0 24 0;
#X connect 28 0 7 0;
#X connect 29 0 5 0;
#X connect 30 0 20 0;
#X connect 31 0 21 0;
#X connect 32 0 30 1;
#X connect 32 0 31 1;
#X connect 33 0 32 0;
#X connect 34 0 6 1;
#X connect 34 0 16 1;
#X connect 35 0 34 0;
#X connect 37 0 38 0;
#X connect 38 0 36 1;
#X connect 39 0 13 0;
#X connect 39 1 11 0;
#X connect 42 0 14 0;
#X connect 43 0 12 0;
#X connect 45 0 39 0;
#X connect 46 0 47 0;
#X connect 47 0 53 0;
#X connect 49 0 35 0;
#X connect 51 0 52 0;
#X connect 52 0 54 0;
#X connect 53 0 45 1;
#X connect 54 0 53 0;
#X connect 54 1 53 1;
