#N canvas 126 143 421 423 10;
#X obj 20 207 tabread testHvalues;
#X obj 167 148 tabread testLvalues;
#X obj 93 176 tabread testCvalues;
#X obj 93 96 t f f f;
#X obj 83 309 pack f f f;
#X obj 82 359 outlet;
#X obj 92 11 inlet;
#X obj 93 71 expr ($f1*255)*256*256 + ($f2*255)*256 + ($f3*255);
#X text 150 47 values of rgb [0 1] are multiplied by 255;
#X connect 0 0 4 0;
#X connect 1 0 4 2;
#X connect 2 0 4 1;
#X connect 3 0 0 0;
#X connect 3 1 2 0;
#X connect 3 2 1 0;
#X connect 4 0 5 0;
#X connect 6 0 7 0;
#X connect 7 0 3 0;
