#N canvas 126 135 918 632 10;
#X obj 290 73 / 255;
#X obj 403 73 / 255;
#X obj 509 72 / 255;
#X obj 102 148 > 0.0405;
#X floatatom 102 170 5 0 0 0 - - -, f 5;
#X obj 67 107 t f f;
#X floatatom 36 248 5 0 0 0 - - -, f 5;
#X obj 67 202 demux;
#X floatatom 120 250 5 0 0 0 - - -, f 5;
#X text 127 230 if varR > 0.0405;
#X text 62 230 else;
#X obj 98 275 expr pow(($f1 + 0.055)/1.055 \, 2.4);
#X obj 36 275 / 12.92;
#X obj 130 202 s cond;
#X obj 73 325 mux, f 4;
#X obj 114 301 r cond;
#X obj 73 354 * 100;
#X obj 405 149 > 0.0405;
#X floatatom 405 171 5 0 0 0 - - -, f 5;
#X obj 370 108 t f f;
#X floatatom 339 249 5 0 0 0 - - -, f 5;
#X obj 370 203 demux;
#X floatatom 423 251 5 0 0 0 - - -, f 5;
#X text 430 231 if varR > 0.0405;
#X text 365 231 else;
#X obj 401 276 expr pow(($f1 + 0.055)/1.055 \, 2.4);
#X obj 339 276 / 12.92;
#X obj 433 203 s cond;
#X obj 376 326 mux, f 4;
#X obj 417 302 r cond;
#X obj 376 355 * 100;
#X obj 697 149 > 0.0405;
#X floatatom 697 171 5 0 0 0 - - -, f 5;
#X obj 662 108 t f f;
#X floatatom 631 249 5 0 0 0 - - -, f 5;
#X obj 662 203 demux;
#X floatatom 715 251 5 0 0 0 - - -, f 5;
#X text 722 231 if varR > 0.0405;
#X text 657 231 else;
#X obj 693 276 expr pow(($f1 + 0.055)/1.055 \, 2.4);
#X obj 631 276 / 12.92;
#X obj 725 203 s cond;
#X obj 668 326 mux, f 4;
#X obj 709 302 r cond;
#X obj 668 355 * 100;
#X text 72 582 X \, Y \, Z;
#X text 115 353 varR;
#X text 418 356 varG;
#X obj 376 381 s varG;
#X obj 73 382 s varR;
#X obj 668 380 s varB;
#X text 706 355 varB;
#X obj 71 459 expr $f1*0.4124 + $f2*0.3576 + $f3*0.1805;
#X obj 71 484 s X;
#X obj 70 418 r varR;
#X obj 172 422 r varG;
#X obj 294 421 r varB;
#X obj 195 503 r varR;
#X obj 196 541 expr $f1*0.2126 + $f2*0.7152 + $f3*0.0722;
#X obj 560 443 r varR;
#X obj 196 566 s Y;
#X obj 560 493 s Z;
#X obj 560 468 expr $f1*0.0193 + $f2*0.1192 + $f3*0.9505;
#X obj 769 561 pack f f f;
#X obj 739 507 r X;
#X obj 823 507 r Z;
#X obj 776 506 r Y;
#X obj 294 41 inlet R;
#X obj 394 42 inlet G;
#X obj 509 41 inlet B;
#X obj 309 487 r varG;
#X obj 431 486 r varB;
#X obj 683 434 r varG;
#X obj 805 433 r varB;
#X floatatom 286 131 5 0 0 0 - - -, f 5;
#X obj 769 588 s XYZ3plet;
#X floatatom 674 541 5 0 0 0 - - -, f 5;
#X floatatom 687 567 5 0 0 0 - - -, f 5;
#X floatatom 708 592 5 0 0 0 - - -, f 5;
#X connect 0 0 5 0;
#X connect 0 0 74 0;
#X connect 1 0 19 0;
#X connect 2 0 33 0;
#X connect 3 0 4 0;
#X connect 4 0 13 0;
#X connect 4 0 7 1;
#X connect 5 0 7 0;
#X connect 5 1 3 0;
#X connect 6 0 12 0;
#X connect 7 0 6 0;
#X connect 7 1 8 0;
#X connect 8 0 11 0;
#X connect 11 0 14 1;
#X connect 12 0 14 0;
#X connect 14 0 16 0;
#X connect 15 0 14 2;
#X connect 16 0 49 0;
#X connect 17 0 18 0;
#X connect 18 0 27 0;
#X connect 18 0 21 1;
#X connect 19 0 21 0;
#X connect 19 1 17 0;
#X connect 20 0 26 0;
#X connect 21 0 20 0;
#X connect 21 1 22 0;
#X connect 22 0 25 0;
#X connect 25 0 28 1;
#X connect 26 0 28 0;
#X connect 28 0 30 0;
#X connect 29 0 28 2;
#X connect 30 0 48 0;
#X connect 31 0 32 0;
#X connect 32 0 41 0;
#X connect 32 0 35 1;
#X connect 33 0 35 0;
#X connect 33 1 31 0;
#X connect 34 0 40 0;
#X connect 35 0 34 0;
#X connect 35 1 36 0;
#X connect 36 0 39 0;
#X connect 39 0 42 1;
#X connect 40 0 42 0;
#X connect 42 0 44 0;
#X connect 43 0 42 2;
#X connect 44 0 50 0;
#X connect 52 0 53 0;
#X connect 54 0 52 0;
#X connect 55 0 52 1;
#X connect 56 0 52 2;
#X connect 57 0 58 0;
#X connect 58 0 60 0;
#X connect 59 0 62 0;
#X connect 62 0 61 0;
#X connect 63 0 75 0;
#X connect 64 0 63 0;
#X connect 64 0 76 0;
#X connect 65 0 63 2;
#X connect 65 0 78 0;
#X connect 66 0 63 1;
#X connect 66 0 77 0;
#X connect 67 0 0 0;
#X connect 68 0 1 0;
#X connect 69 0 2 0;
#X connect 70 0 58 1;
#X connect 71 0 58 2;
#X connect 72 0 62 1;
#X connect 73 0 62 2;
