#N canvas 612 145 339 549 10;
#X obj 65 146 rgb2XYZ;
#N canvas 35 87 542 525 XYZ2Lab 0;
#X obj 126 25 r XYZ3plet;
#X obj 31 311 expr 500 * ( $f1 - $f2 );
#X obj 354 318 expr 200 * ( $f1 - $f2 );
#X msg 271 20 8;
#X floatatom 325 79 5 0 0 0 - - -, f 5;
#X obj 256 50 pow 0.33333;
#X floatatom 385 72 5 0 0 0 - - -, f 5;
#X obj 341 31 expr pow($f1 \, 0.33333333);
#X obj 104 62 unpack f f f;
#X obj 112 126 r refX;
#X obj 250 135 r refZ;
#X obj 85 151 /;
#X obj 170 160 /;
#X obj 181 132 r refY;
#X obj 238 161 /;
#X text 233 348 L;
#X text 370 352 b;
#X text 30 361 a;
#X obj 222 451 pack f f f;
#X obj 219 422 f;
#X obj 283 419 f;
#X text 303 455 Lab triplet;
#X obj 223 478 s Lab3plet;
#X obj 242 379 t b f b;
#X obj 46 363 nbx 10 14 -1e+37 1e+37 0 0 empty empty empty 0 -8 0 10
-262144 -1 -1 0 256;
#X obj 251 348 nbx 10 14 -1e+37 1e+37 0 0 empty empty empty 0 -8 0
10 -262144 -1 -1 0 256;
#X obj 388 354 nbx 10 14 -1e+37 1e+37 0 0 empty empty empty 0 -8 0
10 -262144 -1 -1 0 256;
#X obj 194 316 expr max(0 \, 116*$f1 - 16);
#X obj 214 279 t f f f;
#X floatatom 221 87 5 0 0 0 - - -, f 5;
#X floatatom 156 94 5 0 0 0 - - -, f 5;
#X floatatom 62 98 5 0 0 0 - - -, f 5;
#X floatatom 343 279 12 0 0 0 - - -, f 12;
#X obj 45 206 expr if ($f1>0.00885645 \, pow($f1 \, 0.33333333) \,
(903.3*$f1 + 16)/116 ) \; if ($f2>0.00885645 \, pow($f2 \, 0.33333333)
\, (903.3*$f2 + 16)/116 ) \; if ($f3>0.00885645 \, pow($f3 \, 0.33333333)
\, (903.3*$f3 + 16)/116 ) \;, f 75;
#X connect 0 0 8 0;
#X connect 1 0 23 0;
#X connect 1 0 24 0;
#X connect 2 0 20 1;
#X connect 2 0 26 0;
#X connect 3 0 5 0;
#X connect 3 0 7 0;
#X connect 7 0 4 0;
#X connect 7 0 6 0;
#X connect 8 0 11 0;
#X connect 8 0 31 0;
#X connect 8 1 12 0;
#X connect 8 1 30 0;
#X connect 8 2 14 0;
#X connect 8 2 29 0;
#X connect 9 0 11 1;
#X connect 10 0 14 1;
#X connect 11 0 33 0;
#X connect 12 0 33 1;
#X connect 13 0 12 1;
#X connect 14 0 33 2;
#X connect 18 0 22 0;
#X connect 19 0 18 0;
#X connect 20 0 18 2;
#X connect 23 0 19 0;
#X connect 23 1 18 1;
#X connect 23 2 20 0;
#X connect 27 0 19 1;
#X connect 27 0 25 0;
#X connect 28 0 1 1;
#X connect 28 1 27 0;
#X connect 28 2 2 0;
#X connect 33 0 1 0;
#X connect 33 1 28 0;
#X connect 33 1 32 0;
#X connect 33 2 2 1;
#X restore 48 184 pd XYZ2Lab;
#X obj 225 21 loadbang;
#X msg 188 47 \; refX 95.047 \; refY 100 \; refZ 108.883 \;;
#X msg 185 137 \; refX 94.811 \; refY 100 \; refZ 107.304 \;;
#X text 186 193 observer=10ยบ \; Illuminant=D65 \;;
#X text 176 105 observer=2ยบ \; Illuminant=D65 \;;
#N canvas 548 129 772 436 Lab2Lch 0;
#X obj 68 23 r Lab3plet;
#X obj 62 51 unpack f f f;
#X obj 327 192 atan2;
#X obj 322 145 f;
#X text 324 252 Hยบ;
#X text 471 83 PI = 3.14159;
#X text 46 51 L;
#X obj 101 175 expr sqrt( $f1*$f1 + $f2*$f2 );
#X text 111 193 C;
#X obj 62 377 pack f f f;
#X obj 104 334 f;
#X obj 246 265 t b b f;
#X obj 62 405 s Lch3plet;
#X obj 319 233 expr if ( $f1>0 \, $f1/3.14159265*180 \, 360-abs($f1)/3.14159265*180
), f 67;
#X obj 449 104 expr 4*atan(1);
#X floatatom 439 146 12 0 0 0 - - -, f 12;
#X obj 442 71 bng 15 250 50 0 empty empty empty 17 7 0 10 -262144 -1
-1;
#X text 416 127 this calculates PI on the fly;
#X obj 277 96 t f f;
#X obj 120 92 t b f f;
#X connect 0 0 1 0;
#X connect 1 0 9 0;
#X connect 1 1 19 0;
#X connect 1 2 18 0;
#X connect 2 0 13 0;
#X connect 3 0 2 0;
#X connect 7 0 10 1;
#X connect 9 0 12 0;
#X connect 10 0 9 1;
#X connect 11 1 10 0;
#X connect 11 2 9 2;
#X connect 13 0 11 0;
#X connect 14 0 15 0;
#X connect 16 0 14 0;
#X connect 18 0 7 1;
#X connect 18 1 3 1;
#X connect 19 0 3 0;
#X connect 19 1 7 0;
#X connect 19 2 2 1;
#X restore 49 216 pd Lab2Lch;
#X obj 39 79 unpack f f f;
#X obj 47 114 * 255;
#X obj 85 113 * 255;
#X obj 128 114 * 255;
#X obj 39 41 inlet rgb3plet;
#X obj 51 247 r Lch3plet;
#X obj 40 431 pack f f f;
#X obj 40 359 t b b f;
#X obj 78 395 f;
#X obj 40 398 f;
#X obj 70 303 expr $f1/100 \; $f2/133.815862016195 \; $f3/360;
#X obj 46 477 outlet HCL3plet;
#X connect 2 0 3 0;
#X connect 8 0 9 0;
#X connect 8 1 10 0;
#X connect 8 2 11 0;
#X connect 9 0 0 0;
#X connect 10 0 0 1;
#X connect 11 0 0 2;
#X connect 12 0 8 0;
#X connect 13 0 18 0;
#X connect 14 0 19 0;
#X connect 15 0 17 0;
#X connect 15 1 16 0;
#X connect 15 2 14 2;
#X connect 16 0 14 1;
#X connect 17 0 14 0;
#X connect 18 0 15 0;
#X connect 18 1 16 1;
#X connect 18 2 17 1;
