#N canvas 1 54 495 451 10;
#X obj 31 85 soundfiler;
#X obj 25 118 table som-L;
#X obj 110 119 table som-R;
#X msg 31 59 read -resize ./Numbered_sound_files/0.wav som-L som-R
;
#X obj 39 300 tabplay~ som-L;
#X obj 136 299 tabplay~ som-R;
#X obj 266 146 adc~ 1 2 3 4;
#X obj 94 355 dac~ 1 2 3 4;
#X obj 114 246 bng 15 250 50 0 empty empty empty 17 7 0 10 -262144
-1 -1;
#X obj 117 172 table rec-R;
#X obj 27 173 table rec-L;
#X connect 3 0 0 0;
#X connect 4 0 7 0;
#X connect 5 0 7 1;
#X connect 8 0 4 0;
#X connect 8 0 5 0;
