#N canvas 562 164 707 344 10;
#X obj 108 34 hsl 128 15 0.4 10 0 0 empty empty empty -2 -8 0 10 -262144
-1 -1 12700 1;
#X obj 105 89 expr 1/$f1;
#X floatatom 109 123 12 0 0 0 - - -, f 12;
#X obj 275 94 expr 1/($f1*$f1);
#X floatatom 280 128 12 0 0 0 - - -, f 12;
#X floatatom 99 181 12 0 0 0 - - -, f 12;
#X obj 113 201 dbtorms;
#X obj 102 152 maxlib/scale 0 10 0 100 0;
#X text 262 158 convert distance (m) 2 decibels;
#X floatatom 137 228 12 0 0 0 - - -, f 12;
#X text 176 91 linear;
#X text 385 93 inverted square;
#X obj 216 209 dbtopow;
#X floatatom 240 233 12 0 0 0 - - -, f 12;
#X text 247 36 0.4 - 10m;
#X text 374 197 1m 90db \; 2m 84db \; 3m 74db \; 0.4m ?;
#X floatatom 52 71 5 0 0 0 - - -, f 5;
#X obj 496 157 osc~;
#X msg 501 93 440;
#X obj 515 190 lop~ 3;
#X obj 485 212 *~;
#X obj 468 251 dac~;
#X obj 551 242 env~;
#X floatatom 558 269 5 0 0 0 - - -, f 5;
#X connect 0 0 1 0;
#X connect 0 0 3 0;
#X connect 0 0 16 0;
#X connect 1 0 2 0;
#X connect 2 0 7 0;
#X connect 2 0 19 0;
#X connect 3 0 4 0;
#X connect 5 0 6 0;
#X connect 6 0 9 0;
#X connect 7 0 5 0;
#X connect 7 0 12 0;
#X connect 12 0 13 0;
#X connect 17 0 20 0;
#X connect 18 0 17 0;
#X connect 19 0 20 1;
#X connect 20 0 21 0;
#X connect 20 0 21 1;
#X connect 20 0 22 0;
#X connect 22 0 23 0;
