#N canvas 514 68 696 699 10;
#X obj 17 128 expr (4*$f1)/($f1+(15*$f2)+(3*$f3));
#X obj 295 127 expr (9*$f2)/($f1+(15*$f2)+(3*$f3));
#X obj 17 158 s varU;
#X obj 284 156 s varV;
#X obj 242 183 t f f;
#X obj 209 393 r refX;
#X obj 384 395 r refZ;
#X obj 295 395 r refY;
#X obj 84 446 expr (4*$f1)/($f1+(15*$f2)+(3*$f3));
#X obj 328 447 expr (9*$f2)/($f1+(15*$f2)+(3*$f3));
#X obj 84 471 s refU;
#X obj 330 478 s refV;
#X obj 265 335 expr (116*$f1)-16;
#X obj 237 361 s CIE-L;
#X obj 450 591 expr 13*$f1*($f2-$f3);
#X obj 220 605 expr 13*$f1*($f2-$f3);
#X obj 279 506 r CIE-L;
#X obj 447 509 r varU;
#X obj 566 546 r refU;
#X obj 339 511 r varV;
#X obj 361 591 r refV;
#X obj 450 616 s CIE-u;
#X obj 221 629 s CIE-v;
#X obj 235 72 unpack f f f;
#X floatatom 358 163 12 0 0 0 - - -, f 12;
#X obj 257 552 t f f;
#X obj 264 530 f;
#X obj 322 543 t b f;
#X obj 63 633 print L;
#X obj 290 196 r refY;
#X obj 266 228 /;
#X obj 311 253 > 0.00885645;
#X obj 224 286 demux . .;
#X obj 258 251 t f f;
#X text 294 224 calc Y/Yn;
#X text 293 285 make decision based on Y/Yn value;
#X obj 259 310 pow 0.333333;
#X obj 153 317 expr 903.296*$f1;
#X floatatom 147 473 5 0 0 0 - - -, f 5;
#X floatatom 376 479 5 0 0 0 - - -, f 5;
#X text 37 10 FALTA CALCULAR BEM AS COORDENADAS POLARES DO cie-lUV-H
\; estas sao constantes pras formulas \; (6/29)^3 = 0.00885645 \; (29/3)^3
= 903.296;
#X obj 243 48 r XYZ3plet;
#X connect 0 0 2 0;
#X connect 1 0 3 0;
#X connect 1 0 24 0;
#X connect 4 0 30 0;
#X connect 5 0 8 0;
#X connect 5 0 9 0;
#X connect 6 0 8 2;
#X connect 6 0 9 2;
#X connect 7 0 8 1;
#X connect 7 0 9 1;
#X connect 8 0 10 0;
#X connect 8 0 38 0;
#X connect 9 0 11 0;
#X connect 9 0 39 0;
#X connect 12 0 13 0;
#X connect 14 0 21 0;
#X connect 15 0 22 0;
#X connect 16 0 26 1;
#X connect 17 0 14 1;
#X connect 18 0 14 2;
#X connect 19 0 27 0;
#X connect 20 0 15 2;
#X connect 23 0 0 0;
#X connect 23 0 1 0;
#X connect 23 1 0 1;
#X connect 23 1 1 1;
#X connect 23 1 4 0;
#X connect 23 2 0 2;
#X connect 23 2 1 2;
#X connect 25 0 15 0;
#X connect 25 1 14 0;
#X connect 26 0 25 0;
#X connect 27 0 26 0;
#X connect 27 1 15 1;
#X connect 29 0 30 1;
#X connect 30 0 33 0;
#X connect 31 0 32 1;
#X connect 32 0 37 0;
#X connect 32 1 36 0;
#X connect 33 0 32 0;
#X connect 33 1 31 0;
#X connect 36 0 12 0;
#X connect 37 0 13 0;
#X connect 41 0 23 0;
